<svg t="1586404877725" class="icon" viewBox="0 0 1024 1024" version="1.1" xmlns="http://www.w3.org/2000/svg" p-id="3915" width="200" height="200"><path d="M124.13155555 512a468.992 448.85333333 90 1 0 897.70666667 0 468.992 448.85333333 90 1 0-897.70666667 0Z" fill="#ffffff" p-id="3916"></path><path d="M471.15377778 512m-468.992 0a468.992 468.992 0 1 0 937.984 0 468.992 468.992 0 1 0-937.984 0Z" fill="#FE4175" p-id="3917"></path><path d="M361.58577778 794.96533333c-38.45688889-78.848-18.20444445-124.24533333 12.17422222-165.66044444 19.34222222-28.10311111 32.99555555-59.61955555 40.39111111-92.61511111 7.39555555-33.10933333 26.28266667 31.51644445 16.15644444 82.83022222 44.48711111-49.26577778 52.56533333-128.11377778 46.53511112-157.696C577.99111111 530.88711111 622.47822222 682.66666667 563.88266667 793.03111111c311.52355555-173.51111111 76.8-431.78666667 36.29511111-459.43466666 14.22222222 29.58222222 16.15644445 78.848-12.06044445 102.51377777-46.53511111-173.51111111-161.792-207.07555555-161.792-207.07555555 14.22222222 88.74666667-48.58311111 185.344-109.22666666 258.38933333-2.048-35.49866667-4.096-59.16444445-24.23466667-94.66311111-4.20977778 64.96711111-54.84088889 116.28088889-68.83555555 181.36177778-18.20444445 88.63288889 14.10844445 151.77955555 137.55733333 220.84266666z m0 0" fill="#FFFFFF" p-id="3918"></path></svg>