<svg t="1586511262078" class="icon" viewBox="0 0 1024 1024" version="1.1" xmlns="http://www.w3.org/2000/svg" p-id="5564" width="200" height="200"><path d="M63.6 401.6c134.7-47.1 672-153.1 896.9-197.4C745.8 310.1 446.7 403.8 311.4 481c-13.1-4.5-34.7-11.1-72.1-22.4-45.9-13.7-128.2-38.5-175.7-57zM367 753.3c-6.9 3.3-14.2 6.7-22.3 10.6-3.9-41.8-6.2-109.1-7.2-171.1 33.9 53.1 62.4 96.6 86.4 132.1-20 11-36 18.6-56.9 28.4z" fill="#bfbfbf" p-id="5565"></path><path d="M563.2 819.8C524 786.3 419.9 623.2 379.1 559.1c-11.5-18.1-19.8-31.1-26-40.6 150.8-85.4 370.2-198.9 607.4-314.3-60.6 140.2-330.1 550.6-397.3 615.6z" fill="#bfbfbf" p-id="5566"></path></svg>