<svg t="1585988621378" class="icon" viewBox="0 0 1024 1024" version="1.1" xmlns="http://www.w3.org/2000/svg" p-id="23083" width="200" height="200"><path d="M874.709333 35.370667H133.248a61.952 61.952 0 0 0-61.781333 61.781333v741.461333A185.898667 185.898667 0 0 0 256.853333 1024h494.293334a185.898667 185.898667 0 0 0 185.386666-185.386667V97.152A61.952 61.952 0 0 0 874.709333 35.370667zM287.701333 251.648h216.277334a30.890667 30.890667 0 0 1 0 61.781333H287.701333a30.890667 30.890667 0 0 1 0-61.781333zM720.213333 745.941333H287.744a30.890667 30.890667 0 0 1 0-61.781333h432.512a30.890667 30.890667 0 0 1 0 61.781333z m0-216.277333H287.744a30.890667 30.890667 0 1 1 0-61.781333h432.512a30.890667 30.890667 0 1 1 0 61.781333z" p-id="23084"></path></svg>