<svg t="1585988684904" class="icon" viewBox="0 0 1024 1024" version="1.1" xmlns="http://www.w3.org/2000/svg" p-id="25356" width="200" height="200"><path d="M767.9936 0 255.99744 0C114.61504 0 0 114.61504 0 255.99744l0 511.99872c0 141.3824 114.61504 256 255.99744 256l511.99616 0c141.3824 0 255.99744-114.6176 255.99744-256L1023.99104 255.99744C1023.99232 114.61504 909.376 0 767.9936 0zM511.99616 128.0064c65.64352 0 118.85696 53.21472 118.85696 118.8544 0 65.64352-118.85696 213.94304-118.85696 213.94304S393.1392 312.50432 393.1392 246.8608C393.1392 181.22112 446.35264 128.0064 511.99616 128.0064zM246.85568 630.85824c-65.64352 0-118.85696-53.21216-118.85696-118.8544 0-65.64352 53.21472-118.8544 118.85696-118.8544 65.64096 0 213.94048 118.8544 213.94048 118.8544S312.49664 630.85824 246.85568 630.85824zM511.99616 896c-65.64352 0-118.85696-53.21472-118.85696-118.8544 0-65.64608 118.85696-213.94304 118.85696-213.94304s118.85696 148.29696 118.85696 213.94304C630.85312 842.78656 577.6384 896 511.99616 896zM777.13536 630.85824c-65.64096 0-213.94048-118.8544-213.94048-118.8544s148.29952-118.8544 213.94048-118.8544c65.64352 0 118.85696 53.21216 118.85696 118.8544C895.99232 577.64608 842.77888 630.85824 777.13536 630.85824z" p-id="25357"></path></svg>