<svg t="1585988741302" class="icon" viewBox="0 0 1024 1024" version="1.1" xmlns="http://www.w3.org/2000/svg" p-id="27530" width="200" height="200"><path d="M966.108714 185.09661v-46.811559C966.108714 64.465943 911.487606 0.034303 845.352271 0.034303H319.242485C253.095717 0 197.445531 64.431641 197.445531 138.285051v18.580553h-107.481352c-18.294698 0-33.067667 16.522399-33.067667 36.898119v285.946135c0 20.37572 14.807271 36.89812 33.067667 36.898119h396.766269v83.023628h-41.048729c-28.825584 0-49.910224 30.231989-49.910224 62.407789v305.89879c0 32.187235 21.073206 56.027514 49.910224 56.027513H585.601858c28.837018 0 49.875921-23.874581 49.875921-56.027513V662.050829c0-32.175801-21.038903-62.40779-49.875921-62.40779h-32.781812V479.709858c0-20.37572-14.807271-36.89812-33.067668-36.89812h-396.766269V230.62754h74.459422v10.290768c0 73.819108 55.695922 137.278842 121.831257 137.278842h526.075483c66.135334 0 120.756443-63.448301 120.756443-137.278842v-38.601813c0-2.789941 1.006208-5.648488 1.006209-8.632811s-1.006208-5.808567-1.006209-8.587074z" p-id="27531"></path><path d="M966.108714 185.09661v-46.811559C966.108714 64.465943 911.487606 0.034303 845.352271 0.034303H319.242485C253.095717 0 197.445531 64.431641 197.445531 138.285051v18.580553h-107.481352c-18.294698 0-33.067667 16.522399-33.067667 36.898119v285.946135c0 20.37572 14.807271 36.89812 33.067667 36.898119h396.766269v83.023628h-41.048729c-28.825584 0-49.910224 30.231989-49.910224 62.407789v305.89879c0 32.187235 21.073206 56.027514 49.910224 56.027513H585.601858c28.837018 0 49.875921-23.874581 49.875921-56.027513V662.050829c0-32.175801-21.038903-62.40779-49.875921-62.40779h-32.781812V479.709858c0-20.37572-14.807271-36.89812-33.067668-36.89812h-396.766269V230.62754h74.459422v10.290768c0 73.819108 55.695922 137.278842 121.831257 137.278842h526.075483c66.135334 0 120.756443-63.448301 120.756443-137.278842v-38.601813c0-2.789941 1.006208-5.648488 1.006209-8.632811s-1.006208-5.808567-1.006209-8.587074z" p-id="27532"></path></svg>