<svg t="1585988768198" class="icon" viewBox="0 0 1024 1024" version="1.1" xmlns="http://www.w3.org/2000/svg" p-id="28297" width="200" height="200"><path d="M512 37.591153c-262.009366 0-474.408847 212.400504-474.408847 474.408847s212.400504 474.408847 474.408847 474.408847S986.408847 774.008342 986.408847 512 774.008342 37.591153 512 37.591153zM829.024353 645.935432c-17.330714 40.974203-42.136679 77.768201-73.729212 109.360733s-68.38653 56.398498-109.360733 73.729212c-42.432415 17.947767-87.493703 27.048029-133.934408 27.048029s-91.503017-9.100262-133.935432-27.048029c-40.974203-17.330714-77.768201-42.136679-109.360733-73.729212s-56.398498-68.38653-73.729212-109.360733c-17.947767-42.432415-27.048029-87.494727-27.048029-133.935432s9.100262-91.501994 27.048029-133.934408c17.330714-40.974203 42.136679-77.768201 73.729212-109.360733s68.38653-56.398498 109.360733-73.729212c42.432415-17.947767 87.494727-27.048029 133.935432-27.048029s91.501994 9.100262 133.934408 27.048029c40.974203 17.330714 77.768201 42.136679 109.360733 73.729212s56.398498 68.38653 73.729212 109.360733c17.947767 42.432415 27.048029 87.493703 27.048029 133.934408S846.972121 603.503017 829.024353 645.935432z" p-id="28298"></path><path d="M512 319.983755c-105.878422 0-192.017268 86.137823-192.017268 192.016245s86.138846 192.016245 192.017268 192.016245 192.016245-86.137823 192.016245-192.016245S617.878422 319.983755 512 319.983755z" p-id="28299"></path><path d="M512 208.859865c-167.152974 0-303.140135 135.988184-303.140135 303.139112 0 167.152974 135.988184 303.140135 303.140135 303.140135 167.151951 0 303.139112-135.988184 303.139112-303.140135C815.140135 344.848049 679.151951 208.859865 512 208.859865zM676.719552 676.719552c-43.998073 43.998073-102.496395 68.228941-164.719552 68.228941s-120.722502-24.230867-164.720575-68.228941-68.228941-102.496395-68.228941-164.719552 24.230867-120.721479 68.228941-164.719552 102.497419-68.228941 164.720575-68.228941 120.721479 24.230867 164.719552 68.228941 68.228941 102.496395 68.228941 164.719552S720.717625 632.721479 676.719552 676.719552z" p-id="28300"></path></svg>