<svg t="1585988663952" class="icon" viewBox="0 0 1024 1024" version="1.1" xmlns="http://www.w3.org/2000/svg" p-id="24594" width="200" height="200"><path d="M512 1024C229.222 1024 0 794.778 0 512S229.222 0 512 0s512 229.222 512 512-229.222 512-512 512z m105.37-760.55h0.05L325.99 551.86c-5.12 5.042-10.88 15.026-12.646 22.092l-24.371 94.976c-3.635 14.157 4.992 22.63 19.302 18.765l93.978-25.421c7.245-1.946 17.203-7.68 22.374-12.8l291.405-288.41c10.42-10.29 9.984-27.315-0.947-38.092l-59.187-58.624c-10.957-10.83-28.11-11.11-38.528-0.896zM281.6 753.613c0 3.686 1.485 7.219 4.122 9.805a14.029 14.029 0 0 0 9.932 4.019h432.23a13.875 13.875 0 0 0 13.953-13.824 13.875 13.875 0 0 0-13.952-13.799H295.629a13.824 13.824 0 0 0-14.029 13.824z" p-id="24595"></path></svg>