<svg t="1585987419627" class="icon" viewBox="0 0 1024 1024" version="1.1" xmlns="http://www.w3.org/2000/svg" p-id="11590" width="200" height="200"><path d="M893.7 129H552.1c-1 0-1.8 0.8-1.8 1.8v341.6c0 1 0.8 1.8 1.8 1.8h341.6c1 0 1.8-0.8 1.8-1.8V130.8c0-1-0.8-1.8-1.8-1.8z m-46.2 297.2H598.3V177h249.2v249.2zM471.9 129H130.3c-1 0-1.8 0.8-1.8 1.8v341.6c0 1 0.8 1.8 1.8 1.8h341.6c1 0 1.8-0.8 1.8-1.8V130.8c0-1-0.8-1.8-1.8-1.8z m-46.2 297.2H176.5V177h249.2v249.2z m46.2 123.6H130.3c-1 0-1.8 0.8-1.8 1.8v341.6c0 1 0.8 1.8 1.8 1.8h341.6c1 0 1.8-0.8 1.8-1.8V551.6c0-1-0.8-1.8-1.8-1.8zM425.7 847H176.5V597.8h249.2V847zM553 613a24 24 0 1 0 48 0 24 24 0 1 0-48 0zM873 589H636c-4.4 0-8 3.6-8 8v32c0 4.4 3.6 8 8 8h237c4.4 0 8-3.6 8-8v-32c0-4.4-3.6-8-8-8zM553 722a24 24 0 1 0 48 0 24 24 0 1 0-48 0zM873 698H636c-4.4 0-8 3.6-8 8v32c0 4.4 3.6 8 8 8h237c4.4 0 8-3.6 8-8v-32c0-4.4-3.6-8-8-8zM553 831a24 24 0 1 0 48 0 24 24 0 1 0-48 0zM873 807H636c-4.4 0-8 3.6-8 8v32c0 4.4 3.6 8 8 8h237c4.4 0 8-3.6 8-8v-32c0-4.4-3.6-8-8-8z" p-id="11591"></path></svg>