<svg t="1585987441499" class="icon" viewBox="0 0 1024 1024" version="1.1" xmlns="http://www.w3.org/2000/svg" p-id="12336" width="200" height="200"><path d="M919.098 1.803h-812.713c-57.742 0-104.671 46.928-104.671 104.671v812.857c0 57.742 46.928 104.67 104.671 104.67h812.784c57.742 0 104.67-46.928 104.67-104.67v-812.927c-0.070-57.743-47.001-104.599-104.742-104.599zM826.535 292.243l-2.161 1.154-0.289 2.45c-22.277 153.761-156.141 269.751-311.345 269.751-155.203 0-289.070-115.988-311.344-269.751l-0.361-2.45-2.163-1.154c-15.427-9.155-24.654-24.654-24.654-41.667 0-26.96 21.915-48.876 48.948-48.876 26.96 0 48.876 21.915 48.876 48.876 0 14.202-6.416 27.465-18.166 37.196l-2.307 1.802 0.505 2.884c20.545 128.963 130.19 222.534 260.669 222.534s240.123-93.641 260.669-222.534l0.506-2.812-2.235-1.802c-11.822-9.804-18.166-22.996-18.166-37.196 0-26.96 21.915-48.876 48.876-48.876v0 0 0c27.031 0 48.948 21.914 48.948 48.876-0.073 16.943-9.3 32.442-24.799 41.596z" p-id="12337"></path></svg>