<?xml version="1.0" standalone="no"?><!DOCTYPE svg PUBLIC "-//W3C//DTD SVG 1.1//EN" "http://www.w3.org/Graphics/SVG/1.1/DTD/svg11.dtd"><svg t="1652520237043" class="icon" viewBox="0 0 1024 1024" version="1.1" xmlns="http://www.w3.org/2000/svg" p-id="2746" xmlns:xlink="http://www.w3.org/1999/xlink" width="200" height="200"><defs><style type="text/css">@font-face { font-family: feedback-iconfont; src: url("//at.alicdn.com/t/font_1031158_u69w8yhxdu.woff2?t=1630033759944") format("woff2"), url("//at.alicdn.com/t/font_1031158_u69w8yhxdu.woff?t=1630033759944") format("woff"), url("//at.alicdn.com/t/font_1031158_u69w8yhxdu.ttf?t=1630033759944") format("truetype"); }
</style></defs><path d="M564.9408 608.6144h29.2352v46.7968h-29.2352z" fill="#FF623E" p-id="2747"></path><path d="M812.7488 87.2448H223.744c-50.8928 0-92.16 41.2672-92.16 92.16v663.3984c0 50.8928 41.2672 92.16 92.16 92.16h589.0048c50.8928 0 92.16-41.2672 92.16-92.16V179.4048c0-50.8928-41.2672-92.16-92.16-92.16zM467.2512 662.8352l1.0752 8.0896c1.3312 9.984-4.352 19.456-13.4144 22.2208l-10.752 3.2768v75.6736c0 23.7568-3.3792 38.0416-15.3088 46.4384-10.5984 7.6288-24.32 9.984-42.3936 10.496-4.7616 0.1536-8.96-3.4816-9.7792-8.4992-1.8432-11.008-5.12-24.5248-8.96-35.7888-1.2288-3.5328 1.28-7.2192 4.7616-7.1168 8.0384 0.3072 15.5136 0.3072 18.5856 0.3072 4.096 0 5.4272-1.4848 5.4272-6.1952v-61.3888l-3.6352 1.0752c-13.0048 3.7888-26.2656-4.9152-29.1328-19.0464-2.7136-13.568 5.2224-26.9312 17.8176-29.952 4.8128-1.1776 9.7792-2.3552 14.9504-3.584v-56.2688h-9.3696c-12.4928 0-22.6304-10.9056-22.6304-24.32s10.1376-24.32 22.6304-24.32h9.3696v-40.96c0-14.1312 10.6496-25.6 23.808-25.6s23.808 11.4688 23.808 25.6v40.96h2.2016c12.4928 0 22.6304 10.9056 22.6304 24.32s-10.1376 24.32-22.6304 24.32h-2.2016v43.8784c10.8544-3.1232 21.5552 4.608 23.1424 16.384z m201.6256-54.2208h-25.7536v46.7968h12.7488c13.056 0 23.6544 11.3664 23.6544 25.3952s-10.5984 25.3952-23.6544 25.3952h-12.7488v100.1472c0 14.5408-10.9568 26.3168-24.4736 26.3168s-24.4736-11.776-24.4736-26.3168v-100.1472h-31.2832c-4.4544 38.7072-16.2304 78.592-42.8544 110.2336-9.1648 10.9056-24.9344 11.1104-34.3552 0.4608-0.1536-0.2048-0.3584-0.4096-0.512-0.6144-8.4992-9.5744-8.9088-24.6272-0.4608-34.304 18.9952-21.76 27.0336-49.3568 30.2592-75.8272h-17.152c-13.056 0-23.6544-11.3664-23.6544-25.3952s10.5984-25.3952 23.6544-25.3952h19.2v-46.7968h-14.1312c-12.8512 0-23.296-11.2128-23.296-25.0368 0-13.824 10.4448-25.0368 23.296-25.0368h18.8928c-2.6624-9.0112-6.7072-19.712-11.3152-30.3104-5.6832-13.1072 0.1024-28.672 12.6464-33.9456 10.8544-4.5568 23.1936 0.1024 28.8768 11.0592 4.0448 7.7824 7.8336 15.7696 11.008 23.296 4.1984 9.9328-0.1536 21.5552-9.5744 25.7024l-9.5744 4.1984h51.3536c6.8096-14.1312 13.8752-31.7952 19.5584-48.7936 4.5568-13.568 18.432-20.6848 31.1808-16.1792 14.848 5.2736 21.504 23.808 13.8752 38.5024-4.8128 9.2672-9.5744 18.2784-13.9776 26.4704h23.04c12.8512 0 23.296 11.2128 23.296 25.0368 0 13.8752-10.4448 25.088-23.296 25.088z m-145.5104-202.4448c-146.432 0-261.1712-75.4176-261.1712-171.7248 0-14.1312 11.4688-25.6 25.6-25.6s25.6 11.4688 25.6 25.6c0 65.3312 96.1536 120.5248 209.9712 120.5248 113.8176 0 209.92-55.1936 209.92-120.5248 0-14.1312 11.4688-25.6 25.6-25.6s25.6 11.4688 25.6 25.6c0.0512 96.3072-114.688 171.7248-261.12 171.7248z" fill="#FF623E" p-id="2748"></path></svg>