<?xml version="1.0" standalone="no"?><!DOCTYPE svg PUBLIC "-//W3C//DTD SVG 1.1//EN" "http://www.w3.org/Graphics/SVG/1.1/DTD/svg11.dtd"><svg t="1576222843397" class="icon" viewBox="0 0 1024 1024" version="1.1" xmlns="http://www.w3.org/2000/svg" p-id="1968" xmlns:xlink="http://www.w3.org/1999/xlink" width="200" height="200"><defs><style type="text/css"></style></defs><path d="M372.212 306.525c0 60.203-48.823 109.02-109.02 109.02-60.202 0-109.02-48.817-109.02-109.02 0-60.196 48.818-109.015 109.02-109.015 60.197 0 109.02 48.819 109.02 109.015" fill="#ffffff" p-id="1969"></path><path d="M585.182 415.545c93.712 0 169.631-75.918 169.631-169.631 0-93.712-75.92-169.631-169.63-169.631s-169.633 75.92-169.633 169.63c0 93.714 75.92 169.632 169.632 169.632z m299.232 112.54l-75.09 43.34v-57.202c0-46.753-38.274-84.92-84.92-84.92H134c-46.752 0-84.92 38.273-84.92 84.92V862.9c0 46.752 38.274 84.92 84.92 84.92h590.298c46.752 0 84.924-38.269 84.924-84.92v-28.132l75.091 43.338c40.237 23.273 90.606-5.792 90.606-52.338v-245.45c0-46.439-50.268-75.505-90.505-52.233z m0 0" fill="#ffffff" p-id="1970"></path><path d="M410.687 585.283l146.566 84.61c19.343 11.173 19.343 39.202 0 50.37l-146.566 84.613c-19.343 11.17-43.646-2.794-43.646-25.24V610.42c0.1-22.343 24.303-36.308 43.646-25.136" fill="#ffffff" p-id="1971"></path></svg>