<svg t="1585989525825" class="icon" viewBox="0 0 1024 1024" version="1.1" xmlns="http://www.w3.org/2000/svg" p-id="40337" width="200" height="200"><path d="M940.218182 165.236364C784.290909 172.218182 507.345455 0 507.345455 0S260.654545 148.945455 69.818182 165.236364c-13.963636 76.8-39.563636 293.236364 53.527273 460.8C249.018182 849.454545 502.690909 1024 502.690909 1024S837.818182 819.2 907.636364 581.818182c69.818182-239.709091 39.563636-346.763636 32.581818-416.581818z m-200.145455 256L512 649.309091c-4.654545 4.654545-11.636364 9.309091-18.618182 9.309091-13.963636 6.981818-30.254545 4.654545-41.890909-6.981818l-116.363636-116.363637c-13.963636-13.963636-13.963636-37.236364 0-51.2 13.963636-13.963636 37.236364-13.963636 51.2 0l95.418182 95.418182 209.454545-209.454545c13.963636-13.963636 37.236364-13.963636 51.2 0 11.636364 13.963636 11.636364 37.236364-2.327273 51.2z" p-id="40338"></path></svg>