<svg t="1585989502707" class="icon" viewBox="0 0 1024 1024" version="1.1" xmlns="http://www.w3.org/2000/svg" p-id="39591" width="200" height="200"><path d="M511.230225 525.042696m-498.957303 0a498.957304 498.957304 0 1 0 997.914607 0 498.957304 498.957304 0 1 0-997.914607 0Z" fill="" p-id="39592"></path><path d="M618.978242 529.07826c30.939322-72.046832 16.126911-157.361411-41.112625-214.600947-57.234421-57.239536-144.093664-72.051947-216.140497-41.112625l94.14781 94.152924c19.006533 19.006533 19.006533 49.945855 0 69.172324l-35.358495 35.363609c-19.006533 19.006533-49.95097 19.006533-69.177439 0L257.178957 377.905736c-29.394657 70.507283-16.132025 155.816747 42.65729 214.606062s144.098779 72.051947 214.600947 41.10751l147.131846 144.651176c19.006533 19.011648 49.945855 19.011648 69.172324 0l35.358494-35.358494c19.011648-19.006533 19.011648-49.945855 0-69.172324l-147.121616-144.661406z" fill="#FFFFFF" p-id="39593"></path></svg>