<svg t="1585981811082" class="icon" viewBox="0 0 1024 1024" version="1.1" xmlns="http://www.w3.org/2000/svg" p-id="3877" width="200" height="200"><path d="M0 307.2l3.072-10.24c8.192-27.136 30.72-45.056 57.344-47.104 24.576-2.048 49.152 13.312 60.416 37.376C133.12 312.32 129.536 340.992 112.64 362.496c-2.048 2.56-4.096 4.608-6.144 7.68 47.616 31.232 94.72 61.44 141.824 92.672 17.92 11.776 35.84 23.552 53.76 34.816 10.24 6.144 17.92 4.608 23.552-6.144 54.272-104.96 108.032-210.432 162.816-316.416-23.552-12.8-38.912-32.256-40.448-61.44-1.024-20.48 5.632-37.888 19.456-51.712 26.624-27.648 70.656-25.088 94.208 5.632 27.136 35.328 17.408 76.8-25.6 107.52 13.824 27.136 28.16 54.784 41.984 81.92 39.424 76.288 78.336 152.576 117.76 228.864 9.216 17.408 14.848 19.456 30.72 9.216 60.928-39.424 121.344-79.36 182.272-118.784 2.56-2.048 5.632-3.584 8.704-5.632-12.8-13.312-20.48-28.672-21.504-47.104-1.536-34.816 20.992-65.536 52.224-71.168 32.768-6.144 63.488 13.824 73.216 47.616 0.512 2.56 1.536 5.632 2.56 8.192v23.552c-10.24 35.328-31.744 55.808-68.096 55.808-1.536 4.096-2.56 8.192-3.584 11.776-35.328 130.048-71.168 260.096-106.496 390.144-4.608 16.896-10.24 21.504-26.112 21.504H205.824c-17.408 0-22.528-4.096-27.136-21.504-29.184-105.472-57.344-211.456-86.528-316.928-7.68-28.672-15.872-56.832-23.552-85.504C40.96 386.56 20.48 375.296 7.68 350.208c-3.072-6.144-5.12-12.8-7.68-19.456V307.2zM512 896h286.72c25.6 0 46.08 15.872 48.64 37.888 2.56 22.016-13.312 41.472-37.888 46.592-3.584 1.024-7.168 1.024-10.752 1.024H224.768c-22.016 0-40.448-11.776-46.592-29.184-6.656-17.408-0.512-37.376 16.896-47.616 9.216-5.12 20.992-8.704 31.744-8.704H512z" p-id="3878"></path></svg>