<svg t="1585981988542" class="icon" viewBox="0 0 1024 1024" version="1.1" xmlns="http://www.w3.org/2000/svg" p-id="5551" width="200" height="200"><path d="M801.28 287.744L870.4 51.2l-204.8 51.2-153.6-102.4-153.6 102.4-204.8-51.2 69.12 236.544A307.2 307.2 0 0 0 51.2 563.2v358.4a102.4 102.4 0 0 0 102.4 102.4h716.8a102.4 102.4 0 0 0 102.4-102.4v-358.4a307.2 307.2 0 0 0-171.52-275.456zM716.8 665.6h-153.6v51.2h153.6v102.4h-153.6v102.4H460.8v-102.4H307.2v-102.4h153.6v-51.2H307.2v-102.4h104.96L330.752 481.792 403.456 409.6 512 518.144 620.544 409.6l72.192 72.192L611.84 563.2H716.8z" p-id="5552"></path></svg>