<svg t="1586441403542" class="icon" viewBox="0 0 1024 1024" version="1.1" xmlns="http://www.w3.org/2000/svg" p-id="6589" width="200" height="200"><path d="M79.0528 848.6912c-23.3472 0-42.1888-18.8416-42.1888-42.1888V185.9584c0-23.3472 18.8416-42.1888 42.1888-42.1888s42.1888 18.8416 42.1888 42.1888v620.544c0 23.3472-18.8416 42.1888-42.1888 42.1888zM799.5392 848.6912c-23.3472 0-42.1888-18.8416-42.1888-42.1888V185.9584c0-23.3472 18.8416-42.1888 42.1888-42.1888s42.1888 18.8416 42.1888 42.1888v620.544c0.4096 23.3472-18.8416 42.1888-42.1888 42.1888z" fill="" p-id="6590"></path><path d="M439.5008 328.4992C289.9968 328.4992 36.864 296.1408 36.864 174.4896S289.5872 20.48 439.5008 20.48s402.6368 32.3584 402.6368 154.0096-253.1328 154.0096-402.6368 154.0096z m0-223.6416c-203.9808 0-310.4768 51.2-318.2592 71.2704 8.192 16.7936 114.688 67.584 318.2592 67.584 198.2464 0 304.3328-48.3328 317.44-69.632-13.5168-20.8896-119.6032-69.2224-317.44-69.2224zM439.5008 540.672C289.9968 540.672 36.864 508.3136 36.864 386.6624c0-23.3472 18.8416-42.1888 42.1888-42.1888s42.1888 18.8416 42.1888 42.1888c7.7824 18.432 114.2784 69.632 318.2592 69.632 203.9808 0 310.4768-51.2 318.2592-71.2704 0-23.3472 18.8416-41.3696 42.1888-41.3696 23.3472 0 42.1888 19.6608 42.1888 43.008 0 121.6512-253.1328 154.0096-402.6368 154.0096zM439.5008 752.8448c-149.504 0-402.6368-32.3584-402.6368-154.0096 0-23.3472 18.8416-42.1888 42.1888-42.1888s42.1888 18.8416 42.1888 42.1888c7.7824 18.432 114.2784 69.632 318.2592 69.632 203.9808 0 310.4768-50.7904 318.2592-71.2704 0-23.3472 18.8416-41.3696 42.1888-41.3696 23.3472 0 42.1888 19.6608 42.1888 43.008 0 121.2416-253.1328 154.0096-402.6368 154.0096zM439.5008 965.0176C289.9968 965.0176 36.864 932.6592 36.864 811.008c0-23.3472 18.8416-42.1888 42.1888-42.1888s42.1888 18.8416 42.1888 42.1888c7.7824 18.432 114.2784 69.632 318.2592 69.632 203.9808 0 310.4768-51.2 318.2592-71.2704 0-23.3472 18.8416-41.3696 42.1888-41.3696 23.3472 0 42.1888 19.6608 42.1888 43.008 0 121.2416-253.1328 154.0096-402.6368 154.0096z" fill="" p-id="6591"></path><path d="M464.896 426.8032h461.2096v496.4352H464.896z" fill="#FFFFFF" p-id="6592"></path><path d="M706.1504 581.632c-129.8432 0-281.3952-30.3104-281.3952-116.3264s151.552-116.3264 281.3952-116.3264 281.3952 30.3104 281.3952 116.3264-151.552 116.3264-281.3952 116.3264z m-187.1872-116.3264c26.2144 13.9264 91.3408 31.9488 187.1872 31.9488s160.9728-18.0224 187.1872-31.9488c-26.2144-13.9264-91.3408-31.9488-187.1872-31.9488s-160.9728 18.0224-187.1872 31.9488zM706.1504 795.8528c-129.8432 0-281.3952-30.3104-281.3952-116.3264 0-23.3472 18.8416-42.1888 42.1888-42.1888 20.8896 0 38.5024 15.5648 41.7792 35.6352 15.1552 13.9264 85.1968 38.5024 197.4272 38.5024s182.272-24.576 197.4272-38.5024c3.2768-20.0704 20.48-35.6352 41.7792-35.6352 23.3472 0 42.1888 18.8416 42.1888 42.1888 0 86.016-151.552 116.3264-281.3952 116.3264zM706.1504 1003.52c-129.8432 0-281.3952-30.3104-281.3952-116.3264 0-23.3472 18.8416-42.1888 42.1888-42.1888 20.8896 0 38.5024 15.5648 41.7792 35.6352 15.1552 13.9264 85.1968 38.5024 197.4272 38.5024s182.272-24.576 197.4272-38.5024c3.2768-20.0704 20.48-35.6352 41.7792-35.6352 23.3472 0 42.1888 18.8416 42.1888 42.1888 0 86.016-151.552 116.3264-281.3952 116.3264z" fill="" p-id="6593"></path><path d="M467.3536 926.5152c-23.3472 0-42.1888-18.8416-42.1888-42.1888V473.088c0-23.3472 18.8416-42.1888 42.1888-42.1888s42.1888 18.8416 42.1888 42.1888v411.2384c0 23.3472-18.8416 42.1888-42.1888 42.1888zM944.9472 926.5152c-23.3472 0-42.1888-18.8416-42.1888-42.1888V473.088c0-23.3472 18.8416-42.1888 42.1888-42.1888s42.1888 18.8416 42.1888 42.1888v411.2384c0.4096 23.3472-18.8416 42.1888-42.1888 42.1888z" fill="" p-id="6594"></path></svg>