<?xml version="1.0" standalone="no"?><!DOCTYPE svg PUBLIC "-//W3C//DTD SVG 1.1//EN" "http://www.w3.org/Graphics/SVG/1.1/DTD/svg11.dtd"><svg t="1652520291371" class="icon" viewBox="0 0 1024 1024" version="1.1" xmlns="http://www.w3.org/2000/svg" p-id="5002" xmlns:xlink="http://www.w3.org/1999/xlink" width="200" height="200"><defs><style type="text/css">@font-face { font-family: feedback-iconfont; src: url("//at.alicdn.com/t/font_1031158_u69w8yhxdu.woff2?t=1630033759944") format("woff2"), url("//at.alicdn.com/t/font_1031158_u69w8yhxdu.woff?t=1630033759944") format("woff"), url("//at.alicdn.com/t/font_1031158_u69w8yhxdu.ttf?t=1630033759944") format("truetype"); }
</style></defs><path d="M507.392 513.1264m-450.816 0a450.816 450.816 0 1 0 901.632 0 450.816 450.816 0 1 0-901.632 0Z" fill="#FF4D7C" p-id="5003"></path><path d="M786.944 752.128l-45.2096-375.9104c-2.4064-20.0704-20.8896-35.2256-42.9056-35.2256h-31.7952c-1.0752-79.4624-71.9872-143.8208-158.976-143.8208-87.04 0-157.9008 64.3584-158.976 143.8208h-31.7952c-22.016 0-40.4992 15.1552-42.9056 35.2256l-45.2096 375.9104c-2.816 23.3984 17.2032 43.8784 42.9056 43.8784h471.9616c25.7024 0 45.7216-20.48 42.9056-43.8784zM508.0576 247.296c56.8832 0 103.2192 41.8816 104.2944 93.7472H403.7632c1.0752-51.9168 47.4112-93.7472 104.2944-93.7472z m122.7776 342.272l-127.0784 135.3216c-4.8128 5.12-13.9776 1.2288-12.8-5.4784l16.0768-89.9584c0.5632-3.072-1.28-6.0928-4.4544-7.2704l-113.9712-42.6496c-4.5568-1.6896-6.0416-7.0144-2.8672-10.496l133.0176-147.2c4.6592-5.1712 13.824-1.536 12.9024 5.12l-15.104 109.0048c-0.4096 3.1232 1.536 6.0416 4.7616 7.1168l106.496 35.7888c4.7616 1.6384 6.3488 7.168 3.0208 10.7008z" fill="#FFFFFF" p-id="5004"></path></svg>