<svg t="1585987753694" class="icon" viewBox="0 0 1024 1024" version="1.1" xmlns="http://www.w3.org/2000/svg" p-id="15025" width="200" height="200"><path d="M495.1 213.3c-171.2 0-310 133.7-310 298.7s138.7 298.7 310 298.7c171.2 0 310-133.7 310-298.7-0.1-164.9-138.9-298.7-310-298.7z m121.2 316.1c12.2 0 22.1 9.5 22.1 21.3s-9.9 21.3-22.1 21.3h-99.2v105.5c0 11.7-9.9 21.2-22.1 21.2-12.1 0-22.1-9.5-22.1-21.2V571.9h-99.2c-12.2 0-22.1-9.5-22.1-21.3s9.9-21.3 22.1-21.3H473v-50h-99.2c-12.2 0-22.1-9.5-22.1-21.3 0-11.7 9.9-21.2 22.1-21.2H473v-5.7l-70.8-69.4s-0.1 0-0.1-0.1c0 0 0-0.1-0.1-0.1l-0.5-0.5 0.1-0.1c-7.9-8.4-7.7-21.3 0.8-29.3s21.8-7.9 30.4-0.3l0.1-0.1 0.6 0.6s0.1 0 0.1 0.1c0 0 0 0.1 0.1 0.1l60.9 59.8 61.3-60.2c8.5-8.4 22.5-8.5 31.2-0.3s8.8 21.7 0.3 30.1l-70.3 68.9v6.5h99.2c12.2 0 22.1 9.5 22.1 21.2 0 11.8-9.9 21.3-22.1 21.3h-99.2v50l99.2 0.1zM495.1 64c-153.7 0-289.7 72-374.4 182.7L92.6 231l-0.2 0.1c-9.1-4.6-20.5-1.6-25.7 7.1-1.7 2.8-2.2 5.8-2.3 8.8l-0.4 0.2 10.4 101.2 0.5 0.3c0.5 5.9 3.6 11.4 9.3 14.6 5.7 3.2 12.2 2.9 17.7 0.4l0.5 0.3 94.3-41.1v-0.4c3.4-1.6 6.5-3.8 8.5-7.1 5-8.4 2.3-18.8-5.7-24.4v-0.4L171.7 275C246 181 363 120 495.1 120c224.7 0 406.8 175.5 406.8 392S719.8 904 495.1 904c-154.6 0-289-83-357.8-205.3l-52.9 22.9C162.4 863.3 316.9 960 495.1 960 751.8 960 960 759.4 960 512S751.8 64 495.1 64z" p-id="15026"></path></svg>