<svg t="1585988159994" class="icon" viewBox="0 0 1024 1024" version="1.1" xmlns="http://www.w3.org/2000/svg" p-id="18972" width="200" height="200"><path d="M341.333 551.936c39.766 14.097 68.267 52.02 68.267 96.597v102.4a102.4 102.4 0 0 1-204.8 0v-102.4c0-44.578 28.501-82.5 68.267-96.597v-78.268C204.015 456.397 153.6 387.755 153.6 307.2c0-93.32 67.686-170.667 153.6-170.667S460.8 213.88 460.8 307.2c0 80.555-50.415 149.163-119.467 166.468v78.302z m307.2 0v-77.141C571.221 460.663 512 399.428 512 324.267v-153.6h68.267v153.6c0 36.42 28.091 68.608 68.266 80.486V170.667H716.8v234.086c40.175-11.878 68.267-44.066 68.267-80.486V171.86h68.266v152.406c0 75.161-59.221 136.396-136.533 150.528v77.141c39.765 14.097 68.267 52.02 68.267 96.597v102.4a102.4 102.4 0 0 1-204.8 0v-102.4c0-44.578 28.501-82.5 68.266-96.597zM307.2 409.6c46.046 0 85.333-44.92 85.333-102.4S353.246 204.8 307.2 204.8s-85.333 44.92-85.333 102.4 39.287 102.4 85.333 102.4z m375.467 204.8a34.133 34.133 0 0 0-34.134 34.133v102.4a34.133 34.133 0 0 0 68.267 0v-102.4a34.133 34.133 0 0 0-34.133-34.133z m-375.467 0a34.133 34.133 0 0 0-34.133 34.133v102.4a34.133 34.133 0 0 0 68.266 0v-102.4A34.133 34.133 0 0 0 307.2 614.4z" p-id="18973"></path></svg>