<svg t="1586677648024" class="icon" viewBox="0 0 1024 1024" version="1.1" xmlns="http://www.w3.org/2000/svg" p-id="4818" width="200" height="200"><path d="M511.732358 0a511.732358 511.732358 0 1 0 511.732357 511.732358A512.267642 512.267642 0 0 0 511.732358 0z m0 943.707266a431.439624 431.439624 0 1 1 431.439623-431.439624 431.974909 431.974909 0 0 1-431.439623 431.439624z" fill="#A1A7AA" p-id="4819"></path><path d="M719.422896 524.579195H515.479352V301.90068a36.934658 36.934658 0 0 0-73.334031 0v240.878201a35.328803 35.328803 0 0 0 0 9.635128 35.328803 35.328803 0 0 0 0 9.635128 36.934658 36.934658 0 0 0 36.934658 36.934658h240.878202a36.934658 36.934658 0 1 0 0-73.33403z" fill="#A1A7AA" p-id="4820"></path></svg>