<svg t="1585988140747" class="icon" viewBox="0 0 1024 1024" version="1.1" xmlns="http://www.w3.org/2000/svg" p-id="18824" width="200" height="200"><path d="M191.872 690.048c0 16.896 13.696 30.464 30.464 30.464 16.896 0 30.464-13.696 30.464-30.464 0-10.88-5.76-20.992-15.232-26.496-9.472-5.504-21.12-5.504-30.464 0a30.6304 30.6304 0 0 0-15.232 26.496z m0 0M768.64 690.048c0 10.88 5.76 20.992 15.232 26.496 9.472 5.504 21.12 5.504 30.464 0 9.472-5.504 15.232-15.488 15.232-26.496 0-10.88-5.76-20.992-15.232-26.496-9.472-5.504-21.12-5.504-30.464 0-9.344 5.504-15.232 15.616-15.232 26.496z m0 0" p-id="18825"></path><path d="M799.232 512.384c-6.4 0-12.672 0.384-18.816 1.024v-114.176c86.4-94.336 0-153.984 0-153.984h-193.28v48.768h58.112V433.92c-33.024 15.744-91.136 136.704-91.136 136.704H400l41.472-81.792h6.656c9.856 0 17.792-7.936 17.792-17.792v-35.072c0-9.856-7.936-17.792-17.792-17.792H106.624c-9.856 0-17.792 7.936-17.792 17.792V471.04c0 9.856 7.936 17.792 17.792 17.792h36.608C69.12 564.096 54.144 632.832 54.144 632.832c-6.144 17.92-9.344 37.12-9.344 57.088 0 98.048 79.488 177.664 177.664 177.664 81.792 0 150.656-55.296 171.264-130.432h234.24c20.608 75.264 89.472 130.432 171.264 130.432 98.048 0 177.664-79.488 177.664-177.664-0.128-98.048-79.616-177.536-177.664-177.536zM222.464 783.488c-51.712 0-93.568-41.856-93.568-93.568 0-51.584 41.856-93.568 93.568-93.568 51.584 0 93.568 41.856 93.568 93.568-0.128 51.712-41.984 93.568-93.568 93.568z m576.768 0c-51.712 0-93.568-41.856-93.568-93.568 0-51.584 41.856-93.568 93.568-93.568 51.712 0 93.568 41.856 93.568 93.568 0 51.712-41.984 93.568-93.568 93.568z" p-id="18826"></path><path d="M106.624 371.456h341.632c9.856 0 17.792-7.936 17.792-17.792V173.952c0-9.856-7.936-17.792-17.792-17.792H106.624c-9.856 0-17.792 7.936-17.792 17.792v179.712c0 9.856 7.936 17.792 17.792 17.792z m189.312-181.888c0-5.12 4.224-9.216 9.216-9.216 5.12 0 9.216 4.096 9.216 9.216v18.56c0 5.12-4.224 9.216-9.216 9.216-5.12 0-9.216-4.224-9.216-9.216v-18.56z m-55.68 0c0-5.12 4.224-9.216 9.216-9.216 5.12 0 9.216 4.096 9.216 9.216v18.56c0 5.12-4.224 9.216-9.216 9.216-5.12 0-9.216-4.224-9.216-9.216v-18.56zM222.72 255.616c-5.632 0-10.24-4.48-10.24-9.856 0-5.504 4.608-9.856 10.24-9.856h109.312c5.632 0 10.24 4.48 10.24 9.856s-4.608 9.856-10.24 9.856h-44.416v32.768h44.416c5.632 0 10.24 4.352 10.24 9.856 0 5.504-4.608 9.856-10.24 9.856h-44.416v29.44c0 5.504-4.608 9.856-10.24 9.856s-10.24-4.48-10.24-9.856v-29.44H222.72c-5.632 0-10.24-4.352-10.24-9.856 0-5.504 4.608-9.856 10.24-9.856h44.416v-32.768H222.72z" p-id="18827"></path></svg>