<svg t="1585988179868" class="icon" viewBox="0 0 1024 1024" version="1.1" xmlns="http://www.w3.org/2000/svg" p-id="19725" width="200" height="200"><path d="M165.6 529.4c-20.2 20.2-20.2 53.2 0 73.4 9.8 9.8 22.8 15.2 36.7 15.2 13.9 0 26.9-5.4 36.7-15.2 16.3-16.3 16.9-49.8 16-89.4-6.4-0.1-12.7-0.2-18.8-0.2-38.6 0-59.1 4.7-70.6 16.2z" p-id="19726"></path><path d="M256.5 647.1c-16.3 11-35.3 16.5-54.2 16.5-24.9 0-49.8-9.5-68.9-28.5C100.3 602 96 551 120.5 513.3H31.9v-47.9h183.3c-28.6-20.9-63-56.3-68.7-107.9-1.4-12.5 7.6-23.7 20.1-25.1 12.4-1.4 23.7 7.6 25.1 20.1 4.8 43.9 42.5 72.5 64.8 85.7V207.4H94.4c-34.4 0-62.6 28.2-62.6 62.6v482c0 34.4 28.2 62.6 62.6 62.6h162.1V647.1z m671.1-439.7H305.3v120.4c18.4-16.4 41.6-24.6 64.7-24.6 24.9 0 49.8 9.5 68.9 28.5 36.7 36.7 38 95.2 4 133.5H990v47.9H356.5C384.1 536 422 577.7 422 635.7c0 12.6-10.2 22.7-22.7 22.7-12.6 0-22.7-10.2-22.7-22.7 0-62.4-69.7-102.3-70.4-102.7-0.3-0.1-0.5-0.3-0.7-0.5v282.1h622.3c34.4 0 62.6-28.2 62.6-62.6V270c-0.1-34.4-28.3-62.6-62.8-62.6z" p-id="19727"></path><path d="M406.7 437.3c20.2-20.2 20.2-53.2 0-73.4-9.8-9.8-22.8-15.2-36.7-15.2-13.9 0-26.9 5.4-36.7 15.2-16.3 16.3-16.9 49.8-16 89.4 6.4 0.1 12.7 0.2 18.8 0.2 38.6 0.1 59.1-4.6 70.6-16.2z" p-id="19728"></path></svg>