<svg t="1611980531430" class="icon" viewBox="0 0 1024 1024" version="1.1" xmlns="http://www.w3.org/2000/svg" p-id="3818" width="200" height="200"><path d="M673.7152 472.1152v-82.2528h-23.2448v66.1248a250.3424 250.3424 0 0 0-131.0976-36.864 248.9344 248.9344 0 0 0-136.0384 39.936v-47.5136h-15.3088l-7.9616-10.5984v75.1872a315.136 315.136 0 0 0-18.3808 16.4096 250.624 250.624 0 0 0-73.6256 177.6384c0 69.4784 28.16 132.4032 73.6256 177.7664A249.9072 249.9072 0 0 0 519.3728 921.6a250.2912 250.2912 0 0 0 177.6128-73.6256 250.4704 250.4704 0 0 0 73.5488-177.7664 250.6752 250.6752 0 0 0-73.5488-177.6384 318.6688 318.6688 0 0 0-23.2704-20.4544z m-3.3536 349.2608a212.864 212.864 0 0 1-150.9888 62.5664 212.9152 212.9152 0 0 1-151.04-62.5664 213.0688 213.0688 0 0 1-62.6432-151.168c0-58.88 23.9872-112.2816 62.6432-150.9376a212.9152 212.9152 0 0 1 151.04-62.464c58.9312 0 112.3328 23.8592 150.9888 62.464a212.6848 212.6848 0 0 1 62.592 150.9376 212.736 212.736 0 0 1-62.592 151.168z" fill="" p-id="3819"></path><path d="M573.3888 583.552h-45.7216c-0.4864 44.3136-3.6864 80.3328-8.9344 107.9552h-49.152l20.7872-30.8736a1331.3536 1331.3536 0 0 0-69.2224-36.0192l-20.3264 31.872a897.024 897.024 0 0 1 63.616 35.0208h-103.7568v40.7296h143.2832c-19.5328 23.5264-64.4608 40.1152-134.5024 50.7648 7.8336 10.3168 16.64 25.216 27.7248 43.8016 58.9824-10.9824 103.1424-29.2352 131.4304-56.4224 43.9296 16.7424 87.8592 34.3552 131.8912 52.8384l17.0752-41.1136c-41.5488-15.5648-83.4304-29.5168-125.5936-43.5968a85.76 85.76 0 0 0 2.5856-6.272h124.8256v-40.7296h-114.6368c4.48-26.9056 7.3216-62.6432 8.6272-107.9552z" fill="" p-id="3820"></path><path d="M544.896 498.0992l-56.2176 6.1696c3.4048 7.2192 7.04 16.8704 10.9824 27.4432h-131.9936v85.504h45.6704v-46.4896h212.8896v46.4896h45.5936v-85.504h-116.0192a456.96 456.96 0 0 0-10.9056-33.6128z" fill="" p-id="3821"></path><path d="M517.9904 614.144a2276.352 2276.352 0 0 0-70.9888-33.7152l-18.9952 31.104c20.7104 9.6256 43.4688 21.504 69.1456 35.968l20.8384-33.3568zM616.3456 377.0368h57.856v-22.8608h-9.3696L825.2672 102.4h-53.9904l-166.0416 260.0704zM593.8944 346.3936L748.544 102.4h-50.2528l-129.2288 208.9216zM671.2576 102.4h-52.5312l-88.704 149.2992 28.1344 40.0128zM586.7776 377.0368L405.0944 102.4H198.7328l181.5552 274.6368z" fill="" p-id="3822"></path></svg>