<svg t="1585989013440" class="icon" viewBox="0 0 1024 1024" version="1.1" xmlns="http://www.w3.org/2000/svg" p-id="31721" width="200" height="200"><path d="M694.272 309.248c28.672 4.096 53.248 14.336 77.824 30.72 38.912 26.624 63.488 65.536 75.776 110.592 4.096 20.48 10.24 40.96 14.336 61.44-14.336-6.144-26.624-14.336-40.96-18.432-126.976-51.2-270.336-14.336-356.352 94.208-94.208 120.832-92.16 290.816 8.192 407.552 2.048 2.048 4.096 4.096 6.144 8.192-4.096 0-8.192 2.048-10.24 2.048h-266.24c-12.288 0-16.384-4.096-16.384-18.432v-202.752-10.24H106.496c-14.336 0-20.48-6.144-20.48-20.48v-182.272c0-110.592 69.632-208.896 172.032-245.76 16.384-6.144 32.768-8.192 47.104-12.288-83.968-18.432-126.976-102.4-112.64-174.08 12.288-71.68 73.728-122.88 143.36-122.88s131.072 53.248 141.312 120.832c12.288 75.776-30.72 155.648-114.688 174.08 61.44 8.192 110.592 34.816 153.6 77.824 14.336-20.48 32.768-38.912 55.296-53.248 22.528-14.336 45.056-22.528 71.68-26.624-40.96-10.24-71.68-30.72-94.208-65.536-22.528-34.816-28.672-73.728-20.48-114.688 14.336-67.584 75.776-118.784 143.36-116.736 71.68 2.048 129.024 53.248 141.312 124.928 8.192 73.728-32.768 153.6-118.784 172.032z" p-id="31722"></path><path d="M954.368 735.232c-2.048-14.336-6.144-30.72-10.24-45.056-36.864-110.592-145.408-176.128-260.096-159.744-112.64 16.384-194.56 110.592-202.752 221.184-6.144 79.872 20.48 147.456 79.872 202.752 71.68 67.584 184.32 81.92 270.336 32.768 83.968-47.104 122.88-120.832 129.024-217.088-4.096-8.192-4.096-20.48-6.144-34.816z m-135.168 81.92h-110.592c-16.384 0-28.672-10.24-28.672-26.624v-118.784c0-14.336 12.288-26.624 24.576-26.624 14.336 0 24.576 12.288 24.576 26.624v94.208h88.064c16.384 0 26.624 10.24 26.624 26.624 4.096 14.336-8.192 24.576-24.576 24.576z" p-id="31723"></path></svg>