<svg t="1585988947629" class="icon" viewBox="0 0 1024 1024" version="1.1" xmlns="http://www.w3.org/2000/svg" p-id="29472" width="200" height="200"><path d="M220.5 678.6l-78 124.8c-3.9 7.8 0 17.6 9.8 17.6l105.3 5.9c3.9 0 5.9 1.9 7.8 3.9l64.4 85.8c5.9 5.9 15.6 5.9 19.5 0l74.1-122.9c3.9-5.9 1.9-11.7-3.9-15.6L236.1 674.7c-5.8-2-11.7 0-15.6 3.9z m581.3-2l78 124.8c3.9 7.8 0 17.6-9.8 17.6l-105.3 5.9c-3.9 0-5.9 2-7.8 3.9l-64.4 85.8c-5.9 5.9-15.6 5.9-19.5 0l-74.1-122.9c-3.9-5.9-1.9-11.7 3.9-15.6l183.3-103.4c5.9-3.9 11.8-1.9 15.7 3.9z m-15.6-425.2L538.4 111c-17.6-9.8-41-9.8-58.5 0L234.2 249.5c-17.6 9.8-29.3 29.3-29.3 48.8v278.9c0 19.5 11.7 39 29.3 48.8l247.7 140.4c17.6 9.8 41 9.8 58.5 0l245.8-136.5c17.6-9.8 29.3-29.3 29.3-48.8v-279c-0.1-21.4-11.8-40.9-29.3-50.7z m-117.1 119L524.8 579.1c-3.9 5.9-11.7 9.8-19.5 9.8-7.8 0-15.6-3.9-19.5-9.8L347.3 370.4c-7.8-9.8-3.9-25.4 5.9-31.2 9.8-5.9 25.4-3.9 31.2 5.9l119 179.4 124.8-181.4c7.8-9.8 21.5-13.7 31.2-5.9 15.6 9.8 17.5 23.4 9.7 33.2z m0 0" p-id="29473"></path></svg>