<svg t="1585988970163" class="icon" viewBox="0 0 1024 1024" version="1.1" xmlns="http://www.w3.org/2000/svg" p-id="30212" width="200" height="200"><path d="M812.4 283.8h-81.1c-35-107.9-119.1-174.6-220.5-174.6S325.4 176 290.3 283.8h-81.1c-45.6 0-82.7 37.8-82.7 84.4v466.6c0 46.5 37.1 84.3 82.7 84.3h603.2c43.8 0 79.3-34.9 82.1-78.8 0.1-1 0.5-1.8 0.5-2.8V368.2c0.1-46.6-37-84.4-82.6-84.4zM510.8 170.2c71.6 0 129.4 41.3 159.8 113.6H351.1c30.4-72.4 88.1-113.6 159.7-113.6z m207 369.2c-29.2 0-53-24.3-53-54 0-17.9 9-34.8 23.7-44.8 2.4-16 3.6-30.9 3.6-45.5 0-18.9-1.7-37.7-5.1-56.1H334.7c-3.4 18.5-5.2 37.4-5.2 56.1 0 14.3 1.2 29.1 3.6 44.9 15.2 10 24.5 27 24.5 45.3 0 29.8-23.8 54-53 54-29.3 0-53.1-24.3-53.1-54 0-18.5 9.3-35.4 24.5-45.3-1.9-15.6-2.9-30.4-2.9-44.9 0-18.5 1.5-37.3 4.4-56.1h466.7c2.9 18.8 4.3 37.6 4.3 56.1 0 14.6-0.9 29.2-2.7 44.5 15.6 9.8 25.1 27 25.1 45.8-0.1 29.7-23.9 54-53.1 54z" p-id="30213"></path></svg>