<svg t="1598687220273" class="icon" viewBox="0 0 1024 1024" version="1.1" xmlns="http://www.w3.org/2000/svg" p-id="1313" width="200" height="200"><path d="M870.208 133.184l-37.376 0 0 181.568c0 38.592-31.296 69.952-69.952 69.952-38.592 0-69.888-31.36-69.888-69.952L692.992 133.184l-360.96 0 0 181.12c0 38.656-31.36 70.016-70.016 70.016-38.592 0-69.888-31.36-69.888-70.016l0-181.12-38.4 0C104.128 133.184 64 173.376 64 222.912l0 196.48 896 0 0-196.48C960 173.376 919.872 133.184 870.208 133.184z" p-id="1314"></path><path d="M315.328 295.168c0 29.632-24.064 53.568-53.568 53.568l0 0c-29.632 0-53.568-23.936-53.568-53.568L208.192 118.528c0-29.632 24-53.568 53.568-53.568l0 0c29.504 0 53.568 23.936 53.568 53.568L315.328 295.168z" p-id="1315"></path><path d="M817.92 295.168c0 29.632-23.936 53.568-53.632 53.568l0 0c-29.632 0-53.568-23.936-53.568-53.568L710.72 118.528c0-29.632 23.936-53.568 53.568-53.568l0 0c29.696 0 53.632 23.936 53.632 53.568L817.92 295.168z" p-id="1316"></path><path d="M907.648 456.512l0 7.04 0 102.016 0 249.856c0 49.536-40.128 89.664-89.664 89.664L205.312 905.088c-49.536 0-89.664-40.128-89.664-89.664l0-258.56L115.648 463.936 115.648 456.512 64 456.512l0 88.576 0 11.84 0 312.384c0 49.536 40.128 89.792 89.792 89.792l716.352 0c49.664 0 89.792-40.256 89.792-89.792L959.936 565.568l0-20.48L959.936 456.512 907.648 456.512z" p-id="1317"></path><path d="M537.152 716.672l70.464 0c6.976 32.256 24.896 41.536 42.368 41.536 25.92 0 41.664-16.768 41.664-46.272 0-16.64-6.208-40.064-41.664-40.96L627.52 670.976 627.52 626.816l10.176 0c35.456-0.896 43.968-15.424 43.968-42.24 0-17.344-12.864-29.952-33.664-30.528C620.736 553.344 616.576 565.888 609.728 582.4L543.744 582.528c15.296-50.752 50.752-76.544 106.304-77.44 67.328 1.792 102.208 28.992 104.64 81.536 0 25.792-14.848 45.312-44.288 58.176 37.696 12.928 56.64 36.032 56.64 69.12-2.368 55.36-41.344 84.416-116.928 87.168C586.24 801.152 547.776 770.176 537.152 716.672z" p-id="1318"></path><path d="M488.512 734.656l0 62.4L261.76 797.056l0-40.256c24.704-38.72 49.344-67.776 95.488-97.28 42.432-27.712 57.216-48.832 57.216-69.12 0-4.48 0.192-27.712-33.984-27.712C356.672 563.584 339.2 574.336 339.2 598.848L267.008 599.296c4.16-69.568 60.8-94.272 118.784-94.272 66.048 2.752 101.504 30.848 106.24 84.288 2.368 36.032-17.92 70.464-73.472 104.576-30.72 18.368-33.472 20.416-52.288 40.704L488.512 734.592z" p-id="1319"></path></svg>