<?xml version="1.0" standalone="no"?><!DOCTYPE svg PUBLIC "-//W3C//DTD SVG 1.1//EN" "http://www.w3.org/Graphics/SVG/1.1/DTD/svg11.dtd"><svg t="1560171399010" class="icon" style="" viewBox="0 0 1029 1024" version="1.1" xmlns="http://www.w3.org/2000/svg" p-id="8683" xmlns:xlink="http://www.w3.org/1999/xlink" width="200.9765625" height="200"><defs><style type="text/css"></style></defs><path d="M110.933333 292.977778h804.977778V1024H110.933333z" fill="#EBEBEB" p-id="8684"></path><path d="M494.933333 585.955556c-79.644444 0-145.066667 65.422222-145.066666 145.066666v182.044445c0 19.911111 17.066667 36.977778 36.977777 36.977777h219.022223c19.911111 0 36.977778-17.066667 36.977777-36.977777v-182.044445c-2.844444-79.644444-68.266667-145.066667-147.911111-145.066666z" fill="#FFFFFF" p-id="8685"></path><path d="M878.933333 0H145.066667L8.533333 369.777778c-2.844444 8.533333-5.688889 14.222222-5.688889 22.755555l-2.844444 8.533334h2.844444c-2.844444 8.533333-2.844444 14.222222-2.844444 19.911111 0 91.022222 73.955556 164.977778 164.977778 164.977778 45.511111 0 85.333333-17.066667 116.622222-48.355556 28.444444 28.444444 71.111111 48.355556 116.622222 48.355556 45.511111 0 85.333333-17.066667 116.622222-48.355556 28.444444 28.444444 71.111111 48.355556 116.622223 48.355556 45.511111 0 85.333333-17.066667 116.622222-48.355556 28.444444 28.444444 71.111111 48.355556 116.622222 48.355556 91.022222 0 164.977778-73.955556 164.977778-164.977778 0-5.688889 0-11.377778-2.844445-17.066667H1024l-2.844444-11.377778c0-8.533333-2.844444-14.222222-5.688889-22.755555L878.933333 0z" fill="#E3E3E3" p-id="8686"></path></svg>