<svg t="1585982271589" class="icon" viewBox="0 0 1024 1024" version="1.1" xmlns="http://www.w3.org/2000/svg" p-id="9285" width="200" height="200"><path d="M958.104 445.274c0-28.565-11.158-53.113-28.119-71.859v-2.232h-2.232c-19.638-20.085-47.311-32.136-76.322-32.136H722.889L578.726 193.992c5.356-11.158 11.158-27.672 11.158-39.277 0-44.633-33.475-78.107-78.107-78.107s-78.107 33.475-78.107 78.107c0 16.96 5.356 27.672 11.158 39.277L299.772 339.048H171.229c-55.791 0-105.779 44.633-105.779 106.226v395.892c0 61.593 49.989 106.226 106.226 106.226h680.648c30.797 0 57.576-12.497 76.322-32.136h1.785v-1.785c17.853-19.192 28.119-45.079 28.119-72.305V445.274h-0.446zM839.381 738.065h-38.83l-78.107-116.938c-5.356-5.356-11.158-11.158-11.158-16.96v133.898h-39.277V548.376h44.633l72.305 116.938c5.356 11.158 11.158 16.96 11.158 16.96V554.178h39.277v183.887h-0.001zM633.624 626.483v33.475h-61.593v44.633h72.305v33.474H532.754V554.178H638.98v27.672h-66.949v44.633h61.593z m-128.542-16.514c0 16.514-5.802 33.475-22.316 44.633-11.158 11.158-27.672 16.96-49.989 16.96h-22.316v66.949h-39.277V554.178h66.949c44.633 0 66.949 16.96 66.949 55.791z m-162.017 28.118c0 33.028-5.356 55.345-22.316 72.305-16.96 16.96-39.277 27.672-66.949 27.672-27.672 0-49.989-5.356-66.949-22.316s-22.316-39.277-22.316-66.949c0-33.474 5.356-55.791 22.316-72.305s39.277-27.672 66.949-27.672c27.672 0 49.989 11.158 66.949 22.316 16.96 16.961 22.316 39.277 22.316 66.949z m112.921-427.134c16.96 16.96 33.475 22.316 55.791 22.316s39.277-11.158 55.791-22.316L696.11 339.048H327.89l128.096-128.095z" p-id="9286"></path><path d="M410.014 581.85v61.593h16.96c27.672 0 39.277-11.158 33.474-33.475 0-16.96-11.158-28.119-33.474-28.119h-16.96z m-189.689 16.961c-5.802 11.604-11.158 27.672-11.158 44.633 0 16.96 0 33.475 11.158 44.633 5.356 11.158 16.96 16.96 33.475 16.96 11.158 0 22.316-5.356 33.475-16.96 11.158-11.604 11.158-22.316 11.158-44.633 0-16.96-5.356-33.475-11.158-44.633-5.802-11.158-16.514-16.96-33.475-16.96-16.961-0.001-27.672 5.355-33.475 16.96z" p-id="9287"></path></svg>