<?xml version="1.0" standalone="no"?><!DOCTYPE svg PUBLIC "-//W3C//DTD SVG 1.1//EN" "http://www.w3.org/Graphics/SVG/1.1/DTD/svg11.dtd"><svg t="1604725105782" class="icon" viewBox="0 0 1024 1024" version="1.1" xmlns="http://www.w3.org/2000/svg" p-id="3681" xmlns:xlink="http://www.w3.org/1999/xlink" width="200" height="200"><defs><style type="text/css"></style></defs><path d="M0 0v1024h1024V0H0z m449.86368 116.48512c27.20256 29.3376 58.39872 65.8688 93.60384 109.59872l-55.20384 38.4c-32-45.33248-60.79488-82.6624-86.39488-111.99488l47.99488-36.00384z m-135.19872 352h239.20128c1.05984-11.19744 1.60256-55.7312 1.60256-133.60128H344.2688V278.8864h274.40128c52.26496-65.05984 89.86112-119.7312 112.79872-163.99872l64 39.19872c-21.86752 27.74016-57.06752 69.33504-105.6 124.8h166.4v56.00256h-238.39744c0 66.67264-0.27136 111.19616-0.79872 133.60128h258.40128v56.00256h-264.00256a240.60928 240.60928 0 0 1-6.4 40.00256 6055.48544 6055.48544 0 0 1 245.60128 170.39872l-42.40384 54.4c-82.13504-64.52736-156.53888-120.25856-223.20128-167.19872-36.27008 74.67008-107.73504 133.86752-214.4 177.60256-14.39744-18.66752-28.8-35.46112-43.20256-50.40128 137.0624-54.4 210.66752-129.3312 220.80512-224.79872H314.66496v-56.0128zM177.06496 125.2864c39.45984 46.39744 80.53248 98.40128 123.19744 156.00128l-57.6 38.4c-34.66752-53.32992-73.06752-106.13248-115.2-158.40256l49.60256-35.99872z m688 761.6c-189.86496 1.59744-336.5376 1.3312-439.99744-0.80384-96.5376-2.66752-163.99872-33.59744-202.39872-92.8-15.47264 12.2624-46.6688 46.39744-93.60384 102.4l-34.39616-68.00384a4817.29024 4817.29024 0 0 1 99.19488-87.19872V461.28128H102.66624V402.88768h153.6v350.39744c37.85728 46.92992 95.73376 72.00256 173.59872 75.20256 117.86752 2.12992 271.73376 1.05984 461.60384-3.2a11832.20224 11832.20224 0 0 1-26.40384 61.59872z" fill="#ED7019" p-id="3682"></path></svg>