<?xml version="1.0" standalone="no"?><!DOCTYPE svg PUBLIC "-//W3C//DTD SVG 1.1//EN" "http://www.w3.org/Graphics/SVG/1.1/DTD/svg11.dtd"><svg t="1554730617050" class="icon" style="" viewBox="0 0 1024 1024" version="1.1" xmlns="http://www.w3.org/2000/svg" p-id="3417" xmlns:xlink="http://www.w3.org/1999/xlink" width="200" height="200"><defs><style type="text/css"></style></defs><path d="M890.1632 448.9728h-37.7856a45.6192 45.6192 0 0 1-40.9088-30.1056l-21.7088-52.736a45.3632 45.3632 0 0 1 7.424-50.0736l26.8288-26.7776a31.6928 31.6928 0 0 0 0-44.5952l-44.6464-44.544a31.488 31.488 0 0 0-44.4416 0l-26.9824 26.7776a45.1584 45.1584 0 0 1-50.0224 7.424l-52.736-21.76a45.6704 45.6704 0 0 1-30.1056-40.8576v-37.7856A31.6416 31.6416 0 0 0 543.488 102.4h-62.976a31.5904 31.5904 0 0 0-31.488 31.5392v37.7856a45.568 45.568 0 0 1-30.0544 40.8576l-52.736 21.7088a45.056 45.056 0 0 1-50.0736-7.424l-26.88-26.7776a31.5904 31.5904 0 0 0-44.544 0l-44.544 44.544a31.4368 31.4368 0 0 0 0 44.544l26.7264 26.8288a45.056 45.056 0 0 1 7.424 50.0736l-21.6576 52.8384a45.7728 45.7728 0 0 1-40.9088 30.1056l-37.888-0.0512A31.5904 31.5904 0 0 0 102.4 480.512v62.976c0 17.3056 14.1824 31.488 31.5392 31.488h37.888a45.7216 45.7216 0 0 1 40.8064 30.1568l21.7088 52.736c8.2944 15.2576 4.864 37.8368-7.424 50.0736l-26.7776 26.7776a31.6928 31.6928 0 0 0 0 44.5952l44.5952 44.5952c12.288 12.2368 32.256 12.2368 44.544 0l26.8288-26.7776c12.288-12.2368 34.7648-15.616 49.9712-7.3728l52.8384 21.76a45.568 45.568 0 0 1 30.0544 40.8064v37.7344a31.6928 31.6928 0 0 0 31.5392 31.5392h62.976c17.408 0 31.5904-14.1824 31.5904-31.488v-37.7344c0-17.3056 13.6192-35.6864 30.1056-40.8064l52.8896-21.76c15.2064-8.2432 37.6832-4.9152 50.0224 7.3728l26.7776 26.7776a31.488 31.488 0 0 0 44.4416 0l44.6464-44.5952a31.6928 31.6928 0 0 0 0-44.5952l-26.8288-26.7776a45.4144 45.4144 0 0 1-7.424-50.0736l21.7088-52.736a45.8752 45.8752 0 0 1 40.9088-30.1056h37.7856a31.5392 31.5392 0 0 0 31.4368-31.488V480.512a31.488 31.488 0 0 0-31.3856-31.5392z m-378.0608 220.4672a157.5424 157.5424 0 1 1 157.5936-157.4912 157.5424 157.5424 0 0 1-157.5936 157.4912z" p-id="3418"></path></svg>