<svg t="1585989241077" class="icon" viewBox="0 0 1024 1024" version="1.1" xmlns="http://www.w3.org/2000/svg" p-id="35057" width="200" height="200"><path d="M878.592 781.312q4.096 14.336 7.168 36.352t3.072 44.544-3.584 42.496-10.752 30.208q-5.12 7.168-26.112 13.824t-52.736 12.288-70.656 10.752-77.824 8.704-75.776 5.12-64.512 1.536-64-2.048-74.752-5.12-76.288-7.168-69.12-9.216-53.248-9.728-27.136-9.728q-9.216-7.168-14.336-45.568t4.096-99.84q5.12-34.816 28.16-53.248t53.248-29.184 63.488-18.944 57.856-24.576q19.456-12.288 30.208-23.552t15.36-22.528 4.608-23.552-1.024-27.648q-2.048-22.528-14.848-34.816t-28.16-25.6q-8.192-6.144-13.824-17.92t-10.752-24.064q-5.12-13.312-9.216-29.696-2.048-2.048-6.144-7.168-3.072-5.12-7.168-13.824t-9.216-25.088-6.656-29.184 0.512-22.016q1.024-11.264 5.12-19.456 0-35.84 4.096-71.68 4.096-29.696 13.312-64.512t29.696-62.464q18.432-25.6 39.936-42.496t44.544-26.112 46.592-12.8 45.056-3.584q23.552 2.048 38.4 5.632t24.064 8.704 15.872 12.288 13.824 14.336l19.456 0q9.216 0 17.92 2.56t17.408 9.728 18.944 20.48q23.552 30.72 34.816 67.072t16.384 69.12q5.12 37.888 6.144 74.752 2.048 5.12 3.072 12.288t1.536 17.408-1.536 25.6q-2.048 20.48-6.144 32.256t-9.216 17.92q-5.12 7.168-11.264 10.24-4.096 16.384-9.216 29.696-5.12 12.288-10.752 24.064t-13.824 17.92q-17.408 14.336-28.672 24.064t-15.36 33.28q-3.072 14.336-2.048 28.672t7.68 29.184 21.504 28.16 41.472 23.552q23.552 9.216 51.712 16.896t54.272 17.408 46.592 25.088 28.672 39.936zM549.888 747.52q3.072-6.144 0.512-12.8t-7.68-12.8-12.288-13.312l-47.104 0q-7.168 7.168-11.264 13.312-4.096 5.12-6.656 11.264t0.512 11.264q7.168 14.336 12.288 25.088t11.264 16.896q-2.048 9.216-6.144 26.112t-7.68 34.816-6.144 33.792-2.56 24.064q0 5.12 4.608 12.288t10.752 14.848 12.8 12.8 11.776 5.12 12.288-5.12 13.824-11.776 11.264-14.336 4.608-12.8q0-6.144-3.072-20.992t-6.656-33.28-7.68-35.84-7.168-27.648q6.144-5.12 11.776-14.848t13.824-26.112z" p-id="35058"></path></svg>