<svg t="1585989340438" class="icon" viewBox="0 0 1024 1024" version="1.1" xmlns="http://www.w3.org/2000/svg" p-id="37957" width="200" height="200"><path d="M914.178267 400.284639 422.624948 400.284639c-32.903388 0-44.686758 11.782348-44.686758 44.685735l0 134.059252c0 32.905434 11.783371 44.685735 44.686758 44.685735l491.553319 0c32.903388 0 44.686758-11.780301 44.686758-44.685735L958.865026 444.970374C958.865026 412.065963 947.082678 400.284639 914.178267 400.284639zM914.178267 87.47733 422.624948 87.47733c-32.903388 0-44.686758 11.783371-44.686758 44.687782l0 134.059252c0 32.903388 11.783371 44.686758 44.686758 44.686758l491.553319 0c32.903388 0 44.686758-11.783371 44.686758-44.686758L958.865026 132.165112C958.865026 99.259678 947.082678 87.47733 914.178267 87.47733zM243.877915 400.284639 109.82071 400.284639c-32.949436 0-44.687782 11.782348-44.687782 44.685735l0 134.059252c0 32.905434 11.738345 44.685735 44.687782 44.685735L243.877915 623.715361c32.903388 0 44.687782-11.780301 44.687782-44.685735L288.565696 444.970374C288.565696 412.065963 276.782326 400.284639 243.877915 400.284639zM243.877915 87.47733 109.82071 87.47733c-32.949436 0-44.687782 11.783371-44.687782 44.687782l0 134.059252c0 32.903388 11.738345 44.686758 44.687782 44.686758L243.877915 310.911122c32.903388 0 44.687782-11.783371 44.687782-44.686758L288.565696 132.165112C288.565696 99.259678 276.782326 87.47733 243.877915 87.47733zM914.178267 713.090924 422.624948 713.090924c-32.903388 0-44.686758 11.782348-44.686758 44.685735l0 134.061298c0 32.903388 11.783371 44.685735 44.686758 44.685735l491.553319 0c32.903388 0 44.686758-11.782348 44.686758-44.685735L958.865026 757.776659C958.865026 724.873272 947.082678 713.090924 914.178267 713.090924zM243.877915 713.090924 109.82071 713.090924c-32.949436 0-44.687782 11.782348-44.687782 44.685735l0 134.061298c0 32.903388 11.738345 44.685735 44.687782 44.685735L243.877915 936.523693c32.903388 0 44.687782-11.782348 44.687782-44.685735L288.565696 757.776659C288.565696 724.873272 276.782326 713.090924 243.877915 713.090924z" p-id="37958"></path></svg>