<svg t="1585989649801" class="icon" viewBox="0 0 1536 1024" version="1.1" xmlns="http://www.w3.org/2000/svg" p-id="40644" width="200" height="200"><path d="M1534.0544 7.8336c-2.6624-4.9408-8.2944-9.5488-18.4832-7.1936-19.7888 4.608-250.88 388.2496-747.4944 377.6512h-0.1536c-94.336 1.9968-179.0464-10.1888-254.5408-31.2832L472.9856 209.664s-7.9872-34.0992-41.088-51.5584c-22.912-11.9296-36.224-8.0896-39.04-4.7616-2.5088 3.1232-2.0224 6.4768-2.0224 6.4768l20.48 151.3216C158.2848 203.52 34.688 3.9936 20.4032 0.64 10.1888-1.7152 4.608 2.8928 1.92 7.808c-4.224 7.936-0.1792 19.1488-0.1792 19.1488 71.3984 211.2256 225.4592 377.9072 424.9088 466.7904l54.9632 366.1056c3.7376 104.3968 74.0352 164.1472 165.376 164.1472h273.408c91.392 0 159.8208-65.3056 165.4528-164.1472l50.1248-302.7456s0.8448-4.1728-1.6896-5.9136c-3.072-1.92-26.88-2.6368-75.1104 32.8448-48.2304 35.5072-64.512 86.7584-64.512 86.7584s-52.1216 125.9008-65.792 179.6864c-14.4384 56.6528-78.336 51.6096-78.336 51.6096h-146.56c-48.8704 0-53.888-43.5968-53.888-43.5968l-91.4176-319.3344c66.5856 16.6912 136.6016 25.472 209.2544 25.1648h0.1536c359.0656 1.4336 657.7664-216.8832 766.208-537.3696 0 0 4.0192-11.1872-0.256-19.1232" p-id="40645"></path></svg>