<svg t="1587017291609" class="icon" viewBox="0 0 1024 1024" version="1.1" xmlns="http://www.w3.org/2000/svg" p-id="3235" width="200" height="200"><path d="M707.5 515.8H519.2v-150h61v92h66.3v-92h61v150z" fill="#6D7887" p-id="3236"></path><path d="M893 785.1H380.6c-12.3-46.3-49.5-82.7-96.9-94.7V181.9L131 54.3l-44 50.3 129 107.8v478.1c-58.2 14.7-101.3 66.3-101.3 127.7 0 72.9 60.6 132.1 135.2 132.1 62.8 0 115.6-42.2 130.7-99H893v-66.2z m-643.1 99.1c-37.2 0-67.5-29.6-67.5-66s30.3-65.9 67.5-65.9 67.5 29.6 67.5 65.9c0 36.4-30.3 66-67.5 66z" fill="#6D7887" p-id="3237"></path><path d="M839 251.1H387.7v441.2H839V251.1z m-67.7 375H455.4V317.3h315.9v308.8z" fill="#6D7887" p-id="3238"></path></svg>