<svg t="1587017214417" class="icon" viewBox="0 0 1024 1024" version="1.1" xmlns="http://www.w3.org/2000/svg" p-id="1980" width="200" height="200"><path d="M512.45 333.67c-98.97 0.01-179.19 80.25-179.19 179.22 0.01 64.02 34.17 123.18 89.62 155.18 55.44 32.01 123.75 32 179.2-0.01 55.44-32.02 89.59-91.18 89.58-155.2 0-98.97-80.24-179.19-179.21-179.19z m77.52 193.32c-11.55 4.44-24.5-1.38-28.91-12.95-4.41-11.55 1.39-24.5 12.94-28.91 11.39-4.34 19.03-15.49 19.03-27.75 0-16.47-13.39-29.87-29.86-29.87-12.25 0-23.41 7.65-27.75 19.04-1.46 3.57-2.12 7.12-2.12 10.83v104.53c0 9.61-1.76 18.8-5.25 27.31-10.73 28.12-38.7 47.36-69.42 47.36-41.16 0-74.66-33.5-74.66-74.67 0-30.7 19.23-58.67 47.87-69.6 11.54-4.43 24.5 1.38 28.91 12.94s-1.39 24.5-12.94 28.91c-11.39 4.35-19.04 15.5-19.04 27.75 0 16.47 13.39 29.87 29.86 29.87 12.26 0 23.42-7.65 27.76-19.04 1.45-3.55 2.11-7.12 2.11-10.83V457.38c0-9.63 1.77-18.82 5.27-27.33 10.72-28.1 38.69-47.34 69.4-47.34 41.17 0 74.66 33.5 74.66 74.67 0 30.7-19.23 58.68-47.86 69.61z" fill="#ffffff" p-id="1981"></path><path d="M512.46 64.87c-247.42 0-448 200.58-448 448 0 247.43 200.58 448 448 448 247.43 0 448-200.57 448-448 0-247.42-200.57-448-448-448z m-0.01 672c-123.71 0-223.99-100.3-223.99-224.01 0.01-123.71 100.31-223.99 224.02-223.99 123.71 0.01 223.99 100.31 223.98 224.02 0 123.71-100.3 223.99-224.01 223.98z" fill="#ffffff" p-id="1982"></path></svg>