<svg t="1585989117438" class="icon" viewBox="0 0 1024 1024" version="1.1" xmlns="http://www.w3.org/2000/svg" p-id="33538" width="200" height="200"><path d="M513.20801715 3.31626022c-218.89270477 0-396.35042185 177.45771704-396.35042185 396.35042185 0 109.6879558 44.57583227 208.98696427 116.57365347 280.74318207 71.63541608 71.39381264 170.57201939 115.60723978 279.77676838 115.60723975 109.80875753 0 209.107766-44.69663396 280.86398377-116.81525689 71.27301094-71.63541608 115.36563637-170.4512177 115.36563633-279.53516493C909.43763725 180.77397726 732.1007219 3.31626022 513.20801715 3.31626022z m140.37159101 527.0578758c-36.36131574 36.60291918-86.73563025 59.1928396-142.30441845 59.19283958-55.32718476 0-105.45989584-22.34831699-141.70040988-58.58883103-36.48211747-36.36131574-59.07203789-86.61482856-59.07203787-142.30441843 0-110.89597295 89.87647482-200.77244779 200.77244775-200.77244777S712.04763748 277.77775319 712.04763748 388.67372614c0 55.32718476-22.34831699 105.45989584-58.46802932 141.70040988z" p-id="33539"></path><path d="M477.45070995 776.3264246L257.10838462 999.93039619c-12.32177476 12.44257649-33.22047119 9.42253364-41.55578944-6.04008568l-63.30009785-117.90247232c-2.41603426-4.4696634-6.16088739-8.21451653-10.63055079-10.63055076l-118.02327402-63.42089959c-15.46261933-8.33531823-18.48266217-29.11321292-6.16088741-41.55578942l168.51839029-170.33041595c8.45611994-8.45611994 21.50270498-10.02654222 31.77085061-4.10725827L472.13543458 735.37464375c14.73780906 8.57692166 17.39544673 28.87160953 5.31527537 40.95178085zM845.77513426 597.66069041L1007.28702516 760.74300357c12.44257649 12.44257649 9.30173194 33.22047119-6.16088738 41.55578943l-118.02327405 63.42089956c-4.4696634 2.41603426-8.21451653 6.16088739-10.63055081 10.63055077L809.17221509 994.13191397c-8.33531823 15.46261933-29.23401467 18.48266217-41.55578941 6.04008566L558.50865969 788.04419081c-11.8385679-11.95936964-9.54333537-31.89165235 4.83206851-40.71017743l250.30115028-153.53897781c10.26814563-6.2816891 23.55633412-4.71126681 32.13325578 3.86565484z" p-id="33540"></path></svg>