<svg t="1585989137739" class="icon" viewBox="0 0 1024 1024" version="1.1" xmlns="http://www.w3.org/2000/svg" p-id="34296" width="200" height="200"><path d="M787.616 960a75.904 75.904 0 0 1-21.952-3.2l-258.016-78.176c123.136-138.688 302.336-340.256 304-342.4a118.4 118.4 0 0 0 35.2-90.624V118.048l104.64 238.176a56.672 56.672 0 0 1 4.032 49.472l-0.896 3.584c-3.456 14.08-84.544 474.976-85.376 479.648A87.328 87.328 0 0 1 787.616 960z m-416-42.048a79.424 79.424 0 0 1-59.904-28.096L88.928 618.432a105.248 105.248 0 0 1 0-135.744c3.2-3.84 322.048-384.768 327.424-391.072A65.824 65.824 0 0 1 470.368 64h294.4c24.64 0 39.36 18.24 39.36 48.8v332.8a53.28 53.28 0 0 1-18.432 45.152l-2.24 2.432c-9.152 10.176-348.8 392.768-352.32 396.64a79.36 79.36 0 0 1-59.616 28.256z m229.92-720a89.6 89.6 0 0 0-89.6 89.44v1.28a89.44 89.44 0 0 0 178.88 0v-1.28a89.6 89.6 0 0 0-89.248-89.312z" p-id="34297"></path></svg>