<svg t="1587639073388" class="icon" viewBox="0 0 1024 1024" version="1.1" xmlns="http://www.w3.org/2000/svg" p-id="2284" width="200" height="200"><path d="M158.098286 42.678857H877.348571a109.714286 109.714286 0 0 1 109.714286 109.714286v719.213714a109.714286 109.714286 0 0 1-109.714286 109.714286H158.098286a109.714286 109.714286 0 0 1-109.714286-109.714286V152.393143a109.714286 109.714286 0 0 1 109.714286-109.714286z m159.780571 560.932572l-133.156571 171.885714a36.571429 36.571429 0 0 0 28.891428 58.989714h617.691429a36.571429 36.571429 0 0 0 31.268571-55.588571l-167.533714-275.456a36.571429 36.571429 0 0 0-60.818286-2.523429l-129.389714 177.664a36.571429 36.571429 0 0 1-56.393143 3.291429l-74.825143-80.749715a36.571429 36.571429 0 0 0-55.734857 2.486858z m-38.4-113.956572a61.586286 61.586286 0 1 0 0-123.172571 61.586286 61.586286 0 0 0 0 123.172571z" fill="#8a8a8a" p-id="2285"></path><path d="M765.915429 215.332571V142.445714a32 32 0 1 1 64 0v72.886857h72.886857a32 32 0 1 1 0 64h-72.886857V352.182857a32 32 0 0 1-64 0V279.332571H693.028571a32 32 0 0 1 0-64h72.886858z" fill="#8a8a8a" p-id="2286"></path></svg>