<svg t="1585988641523" class="icon" viewBox="0 0 1024 1024" version="1.1" xmlns="http://www.w3.org/2000/svg" p-id="23831" width="200" height="200"><path d="M857.635 807.253l6.4 6.4L989.69 939.307H738.382l-220.267 0.213h-6.186C248.035 939.52 34.062 748.053 34.062 512S248.035 84.48 511.929 84.48 989.795 275.947 989.795 512c0.107 114.56-50.24 218.56-132.16 295.253z m-194.773-219.84c41.707 0 75.413-33.813 75.413-75.413s-33.813-75.413-75.413-75.413c-41.707 0-75.413 33.813-75.413 75.413s33.813 75.413 75.413 75.413z m-301.76 0c41.707 0 75.413-33.813 75.413-75.413s-33.813-75.413-75.413-75.413S285.689 470.4 285.689 512s33.706 75.413 75.413 75.413z" p-id="23832"></path></svg>