<svg t="1585988715366" class="icon" viewBox="0 0 1024 1024" version="1.1" xmlns="http://www.w3.org/2000/svg" p-id="26782" width="200" height="200"><path d="M1015.359 317.485c-3.29 60.52-26.955 109.592-46.212 133.223-14.068 17.244-51.657 57.747-71.89 79.375L669.384 292.671 553.633 400.016l-0.267 0.254c-50.157 48.38-116.713 51.533-117.327 51.552l-0.804 0.048c-2.652 0.204-5.385 0.307-8.117 0.307-54.502 0-107.969-40.598-131.887-61.495 51.098-52.92 238.446-246.09 310.668-308.776 26.783-23.243 81.437-50.4 147.328-50.4h0.006c68.698 0 130.633 28.91 184.07 85.915 69.466 74.122 80.79 149.707 78.056 200.064zM243.19 391.38l12.318 12.815c3.328 3.464 82.682 84.98 171.61 84.98 3.559 0 7.13-0.127 10.62-0.39 7.206-0.318 82.261-5.009 141.2-61.77l88.934-82.47L793.984 475.94l-0.181 0.17L909.72 598.703l0.33 0.35c16.318 16.365 14.965 48.41-2.762 67.38-20.27 20.003-50.29 22.644-67.045 5.833L688.358 528.687l-14.73 15.575-11.299 11.276 147.027 147.164c16.803 16.855 14.084 46.905-6.07 66.972-10.076 10.03-22.837 16.008-35.946 16.811-12.215 0.754-23.256-3.153-31.08-11.008L586 624.872l-26.21 26.132 147.96 153.147 0.205 0.205c7.82 7.851 11.69 18.899 10.89 31.108-0.864 13.1-6.88 25.834-16.953 35.87-10.079 10.029-22.847 16.003-35.958 16.809-12.213 0.76-23.255-3.147-31.083-11.006L618.82 861.07c30.001-31.453 29.456-81.424-1.538-112.181-15.12-15.016-35.188-23.27-56.5-23.27a81.1 81.1 0 0 0-15.38 1.468c2.648-23.524-5.056-47.986-23.131-65.922-15.12-15.011-35.189-23.278-56.502-23.278-5.1 0-10.121 0.49-15.019 1.414 0.313-2.952 0.483-5.933 0.469-8.94-0.075-21.418-8.488-41.522-23.69-56.6-15.13-15.017-35.198-23.282-56.513-23.282-6.136 0-12.162 0.71-18.017 2.038 0.503-3.653 0.747-7.369 0.74-11.12-0.078-21.412-8.49-41.512-23.693-56.6-15.133-15.011-35.194-23.276-56.503-23.276-21.534 0-41.748 8.41-56.917 23.678l-71.74 72.231 5.314-6.13c-20.184-17.514-76.24-69.311-93.074-98.22a302.457 302.457 0 0 0-2.67-4.444c-72.178-118.928-60.479-232.942 33.85-329.718 67.485-69.238 144.734-79.579 197.65-76.052 70.115 4.665 126.561 34.409 153.597 58.463 9.013 8.02 24.407 22.697 45.816 43.677-99.667 98.137-222.76 226.17-229.86 233.555l-12.318 12.818z m-0.291 119.894c8.16-8.221 19.046-12.748 30.643-12.748 11.475 0 22.284 4.45 30.425 12.528 8.184 8.133 12.719 18.946 12.754 30.48 0.038 11.531-4.405 22.386-12.53 30.568L191.169 685.883c-8.16 8.224-19.052 12.749-30.643 12.749-11.48 0-22.284-4.45-30.43-12.532-8.185-8.123-12.716-18.944-12.753-30.468-0.046-11.544 4.407-22.392 12.536-30.578l113.02-113.78z m73.822 30.262v-0.006 0.006z m23.65 58.7c8.165-8.23 19.051-12.748 30.648-12.748 11.477 0 22.28 4.446 30.424 12.526 8.187 8.127 12.718 18.95 12.755 30.48 0.043 11.533-4.409 22.386-12.534 30.572L288.642 774.839c-8.16 8.232-19.046 12.755-30.643 12.755-11.479 0-22.282-4.45-30.42-12.53-8.185-8.133-12.72-18.952-12.76-30.48-0.043-11.528 4.41-22.384 12.537-30.568l113.016-113.78z m94.738 87.409c8.177-8.222 19.063-12.751 30.653-12.751 11.471 0 22.284 4.452 30.425 12.53v0.006c16.9 16.768 16.998 44.154 0.223 61.046l-113.015 113.78c-8.172 8.222-19.052 12.751-30.649 12.751-11.474 0-22.278-4.452-30.424-12.53-8.184-8.133-12.716-18.948-12.759-30.48-0.043-11.534 4.413-22.38 12.54-30.572l113.006-113.78z m95.016 87.727c8.17-8.228 19.052-12.755 30.653-12.755 11.475 0 22.278 4.45 30.419 12.53h0.005c16.896 16.772 16.995 44.158 0.219 61.048l-113.02 113.78c-8.17 8.22-19.052 12.755-30.643 12.755-11.475 0-22.284-4.446-30.425-12.54-8.184-8.115-12.715-18.938-12.758-30.47-0.046-11.53 4.407-22.386 12.544-30.568l113.006-113.78z m75.38 132.693c16.807 16.874 14.375 46.623-5.421 66.339-19.797 19.714-49.574 22.03-66.393 5.165L517.4 963.23l71.414-71.895 16.691 16.729z" fill="" p-id="26783"></path></svg>