<svg t="1585988585513" class="icon" viewBox="0 0 1024 1024" version="1.1" xmlns="http://www.w3.org/2000/svg" p-id="22177" width="200" height="200"><path d="M329.536 286.72L275.2 438.848h110.656L331.648 286.72h-2.112z m350.656-11.264h-60.096v248.64h59.2a120.512 120.512 0 0 0 91.328-30.656 170.304 170.304 0 0 0 0.448-187.84 120.96 120.96 0 0 0-90.88-30.144z m224-211.2H120A56 56 0 0 0 64 120.256V704a70.4 70.4 0 0 0 64 64h768a70.4 70.4 0 0 0 64-64V120A56 56 0 0 0 904 64zM431.616 568.128l-30.72-86.656h-140.8l-30.72 86.656h-53.632l126.208-336.256h56.96L485.12 568.128h-53.696z m377.6-45.184a154.752 154.752 0 0 1-120.256 45.184H570.048V231.872h119.36a153.6 153.6 0 0 1 120.256 45.696 175.872 175.872 0 0 1 38.4 122.432 178.496 178.496 0 0 1-39.488 122.944zM64 960h896v-128H64v128z" p-id="22178"></path></svg>