<?xml version="1.0" standalone="no"?><!DOCTYPE svg PUBLIC "-//W3C//DTD SVG 1.1//EN" "http://www.w3.org/Graphics/SVG/1.1/DTD/svg11.dtd"><svg t="1560344310097" class="icon" style="" viewBox="0 0 1024 1024" version="1.1" xmlns="http://www.w3.org/2000/svg" p-id="1023" xmlns:xlink="http://www.w3.org/1999/xlink" width="200" height="200"><defs><style type="text/css"></style></defs><path d="M517.333333 160c188.16 0 341.333333 153.173333 341.333334 341.333333s-153.173333 341.333333-341.333334 341.333334-341.333333-153.173333-341.333333-341.333334 153.173333-341.333333 341.333333-341.333333m0-42.666667c-212.053333 0-384 171.946667-384 384s171.946667 384 384 384 384-171.946667 384-384-171.946667-384-384-384z" fill="#303030" p-id="1024"></path><path d="M517.333333 416c47.146667 0 85.333333 38.186667 85.333334 85.333333s-38.186667 85.333333-85.333334 85.333334-85.333333-38.186667-85.333333-85.333334 38.186667-85.333333 85.333333-85.333333m0-42.666667c-70.613333 0-128 57.386667-128 128s57.386667 128 128 128 128-57.386667 128-128-57.386667-128-128-128z" fill="#FFC43C" p-id="1025"></path><path d="M282.666667 522.666667c-11.733333 0-21.333333-9.6-21.333334-21.333334 0-141.226667 114.773333-256 256-256 11.733333 0 21.333333 9.6 21.333334 21.333334s-9.6 21.333333-21.333334 21.333333c-117.546667 0-213.333333 95.786667-213.333333 213.333333 0 11.733333-9.6 21.333333-21.333333 21.333334zM517.333333 757.333333c-11.733333 0-21.333333-9.6-21.333333-21.333333s9.6-21.333333 21.333333-21.333333c117.546667 0 213.333333-95.786667 213.333334-213.333334 0-11.733333 9.6-21.333333 21.333333-21.333333s21.333333 9.6 21.333333 21.333333c0 141.226667-114.773333 256-256 256z" fill="#303030" p-id="1026"></path></svg>