<?xml version="1.0" standalone="no"?><!DOCTYPE svg PUBLIC "-//W3C//DTD SVG 1.1//EN" "http://www.w3.org/Graphics/SVG/1.1/DTD/svg11.dtd"><svg t="1554730425308" class="icon" style="" viewBox="0 0 1024 1024" version="1.1" xmlns="http://www.w3.org/2000/svg" p-id="2681" xmlns:xlink="http://www.w3.org/1999/xlink" width="200" height="200"><defs><style type="text/css"></style></defs><path d="M353.952 817.52064c0 54.30784-44.01152 98.31936-98.31936 98.31936-54.30784 0-98.32064-44.01152-98.32064-98.31936s44.01152-98.31936 98.32064-98.31936C309.94048 719.2 353.952 763.21152 353.952 817.52064z" p-id="2682"></path><path d="M904.544 817.52064c0 54.30784-44.01152 98.31936-98.31936 98.31936-54.30784 0-98.31936-44.01152-98.31936-98.31936s44.01152-98.31936 98.31936-98.31936C860.53248 719.2 904.544 763.21152 904.544 817.52064z" p-id="2683"></path><path d="M992.41856 482.46528l-87.87456-156.54528c-17.97248-21.66144-30.10944-39.328-58.99136-39.328L707.904 286.592l0-117.984c0-21.66144-17.66656-39.328-39.328-39.328l-629.248 0C17.66656 129.28 0 146.94656 0 168.608L0 758.528c0 21.66144 17.66656 39.328 39.328 39.328l78.42432 0c9.64352-67.7504 67.48288-120.20992 137.88032-120.20992s128.2368 52.45952 137.88032 120.20992l274.83136-0.03968c9.67808-67.74656 67.51872-120.17024 137.88032-120.17024 70.39744 0 128.2368 52.45952 137.88032 120.20992l39.09632 0c21.66144 0 39.328-17.66656 39.328-39.328 0 0 0-159.38432 0-196.64C1022.528 524.63232 992.41856 482.46528 992.41856 482.46528zM747.232 561.888 747.232 365.248l96.20736 0c6.336 0 15.13344 9.2928 15.13344 9.2928l82.80064 153.93408c7.3344 10.79168 15.28704 23.58144 15.28704 33.41312L747.232 561.888z" p-id="2684"></path></svg>