<svg t="1585987776277" class="icon" viewBox="0 0 1024 1024" version="1.1" xmlns="http://www.w3.org/2000/svg" p-id="15769" width="200" height="200"><path d="M412.27216208 907.63083191c-10.49766724 0-15.74650086-5.24883362-20.99533447-10.49766724-78.73250427-89.23017068-204.70451028-89.23017068-209.95334391-89.23017068-15.74650086 0-31.49300171-15.74650086-31.49300171-31.49300171s15.74650086-31.49300171 31.49300171-31.49300171c5.24883362 0 157.46500772 0 251.94401203 110.22550516 10.49766724 10.49766724 10.49766724 31.49300171 0 41.99066894-10.49766724 10.49766724-15.74650086 10.49766724-20.99533365 10.49766724z m199.45567584 0c-5.24883362 0-15.74650086-5.24883362-20.99533365-10.49766724-10.49766724-10.49766724-10.49766724-31.49300171 0-41.99066894 99.72783792-110.22550516 246.69517923-110.22550516 251.94401203-110.22550516 15.74650086 0 31.49300171 15.74650086 31.49300171 31.49300171s-15.74650086 31.49300171-31.49300171 31.49300171c0 0-125.97200601 0-209.95334391 89.23017068-5.24883362 10.49766724-10.49766724 10.49766724-20.99533447 10.49766724z m-157.46500772-152.2161741c-99.72783792-15.74650086-188.95800943-73.48367065-241.44634478-167.96267497C144.58164837 477.22647769 128.83514752 335.50797083 176.07465008 230.53129846c5.24883362-10.49766724 15.74650086-15.74650086 26.24416809-20.99533447h10.49766724c57.7371698 0 110.22550516 10.49766724 157.46500773 31.49300171C407.02332846 183.2917959 443.76516297 130.80346054 491.00466553 99.31045884c0 0 5.24883362-5.24883362 10.49766723-5.24883362 10.49766724-5.24883362 20.99533447-5.24883362 26.2441681 0 0 0 5.24883362 0 5.24883361 5.24883362 41.99066895 31.49300171 83.98133789 78.73250427 120.72317239 146.96734048 47.23950256-20.99533447 104.97667154-31.49300171 162.71384134-31.49300171h10.49766725c10.49766724 0 20.99533447 5.24883362 26.24416809 20.99533446 41.99066895 99.72783792 26.24416809 246.69517923-36.74183534 356.9206844-57.7371698 94.4790043-141.71850686 152.2161741-246.6951784 167.96267496" fill="" p-id="15770"></path><path d="M543.49300171 902.38199829s0 31.49300171-31.49300171 31.49300171-31.49300171-31.49300171-31.49300171-31.49300171v-173.21150857h57.7371698v173.21150857z" fill="" p-id="15771"></path></svg>