<svg t="1585988118689" class="icon" viewBox="0 0 1024 1024" version="1.1" xmlns="http://www.w3.org/2000/svg" p-id="18250" width="200" height="200"><path d="M934.988222 411.875628c24.206308-16.070001 24.879644-28.358885 24.879644-49.771567L959.867866 212.796524c0-41.229007-33.423227-74.656327-74.656327-74.656327L138.644175 138.140197c-41.229007 0-74.656327 33.42732-74.656327 74.656327l0 149.308561c0 22.301935 1.553379 37.178761 24.88476 49.771567 34.000372 15.83464 74.656327 47.822169 74.656327 99.547227 0 67.124793-42.195008 88.967264-73.185836 99.434663-21.817911 13.651928-26.355251 36.134988-26.355251 49.873897l0 149.313677c0 41.23924 33.42732 74.656327 74.656327 74.656327l746.56634 0c41.234123 0 74.656327-33.418111 74.656327-74.656327L959.866842 660.731416c0-27.181059-6.237051-35.792181-24.88476-49.771567-54.352909-28.021194-74.656327-52.965306-74.656327-99.54211C860.330872 464.840934 879.340831 441.665095 934.988222 411.875628L934.988222 411.875628zM910.102439 651.592268l0 133.572158c0 27.482935-22.283516 49.770544-49.771567 49.770544L163.529959 834.93497c-27.488051 0-49.770544-22.286586-49.770544-49.770544l0-133.572158c57.863872-20.567431 99.54211-75.251891 99.54211-140.169413 0-64.922638-41.678238-119.601982-99.54211-140.170436L113.759415 237.681284c0-27.488051 22.281469-49.771567 49.770544-49.771567l696.801936 0c27.482935 0 49.771567 22.283516 49.771567 49.771567l0 133.571135c-57.860802 20.564361-99.54825 75.247798-99.54825 140.170436C810.554188 576.340377 852.242659 631.024837 910.102439 651.592268L910.102439 651.592268zM648.801201 461.646172l-93.949742 0 101.984742-109.569488c4.405333-4.819772 4.405333-12.634762 0-17.460674l-15.962553-17.461697c-4.41045-4.821819-11.55108-4.821819-15.96153 0L511.810177 438.665785 398.665257 317.114404c-4.376681-4.78191-11.468193-4.78191-15.839757 0l-15.83464 17.325597c-4.376681 4.786003-4.376681 12.537548 0 17.324574l102.287641 109.88262-94.218872 0c-6.872524 0-12.44545 5.572926-12.44545 12.44545l0 24.8909c0 6.872524 5.572926 12.440333 12.44545 12.440333l111.983467 0 0 49.771567L375.05963 561.195445c-6.872524 0-12.44545 5.572926-12.44545 12.44545l0 24.88476c0 6.867408 5.572926 12.440333 12.44545 12.440333l111.983467 0 0 87.101777c0 6.868431 5.572926 12.446473 12.44545 12.446473l24.88476 0c6.872524 0 12.441357-5.578042 12.441357-12.446473l0-87.101777 111.986537 0c6.872524 0 12.440333-5.572926 12.440333-12.440333l0-24.88476c0-6.872524-5.567809-12.44545-12.440333-12.44545L536.814664 561.195445l0-49.771567 111.986537 0c6.872524 0 12.440333-5.567809 12.440333-12.440333l0-24.8909C661.241534 467.219097 655.672702 461.646172 648.801201 461.646172L648.801201 461.646172zM648.801201 461.646172" p-id="18251"></path></svg>