<?xml version="1.0" standalone="no"?><!DOCTYPE svg PUBLIC "-//W3C//DTD SVG 1.1//EN" "http://www.w3.org/Graphics/SVG/1.1/DTD/svg11.dtd"><svg t="1604725078590" class="icon" viewBox="0 0 1024 1024" version="1.1" xmlns="http://www.w3.org/2000/svg" p-id="2926" xmlns:xlink="http://www.w3.org/1999/xlink" width="200" height="200"><defs><style type="text/css"></style></defs><path d="M1024 896.886C1024 966.538 967.538 1023 897.886 1023H131.114C61.463 1023 5 966.538 5 896.886V130.114C5 60.463 61.463 4 131.114 4h766.772C967.538 4 1024 60.463 1024 130.114v766.772z" fill="#2EA7E0" p-id="2927"></path><path d="M463.768 204.753c32.113 0 59.531-0.93 82.21-2.834v48.192c-15.148-1.86-30.253-2.835-45.357-2.835v382.702c20.774-5.67 44.383-12.27 70.871-19.844v48.192a3972.786 3972.786 0 0 0-70.871 17.009c0 73.705 0.93 127.567 2.835 161.585h-56.697c1.86-28.348 2.835-78.444 2.835-150.246-45.357 9.479-86.95 20.818-124.732 34.019-37.828 13.244-69.941 26.487-96.384 39.688l-22.679-65.201 62.366-11.339V247.275c-15.148 0-34.018 0.975-56.697 2.835v-48.192c24.539 1.905 57.627 2.834 99.219 2.834h153.081z m-14.175 161.585V247.275H319.191v119.063h130.402z m0 141.742v-99.219H319.191v99.219h130.402z m0 136.071v-90.714H319.191V672.5c45.357-9.435 88.81-18.869 130.402-28.349z m140.324 72.288c19.844-21.704 42.035-51.47 66.619-89.297-28.349-52.887-46.775-106.749-55.279-161.585-8.505-54.792-14.662-118.088-18.427-189.934h-22.679v-48.192c37.783 1.905 71.801 2.835 102.054 2.835h158.751c-7.574 92.619-18.427 169.16-32.601 229.621-14.174 60.506-36.41 116.229-66.619 167.255 15.104 26.488 35.436 51.027 60.949 73.706s53.375 42.522 83.628 59.531c-18.914 13.199-34.993 29.278-48.192 48.192-39.688-26.488-82.21-70.871-127.567-133.237-34.018 54.836-72.775 101.079-116.228 138.906-11.34-15.148-28.349-29.322-51.027-42.522 24.539-15.104 46.774-33.53 66.618-55.279z m59.531-270.725c4.695 37.827 17.452 81.279 38.271 130.402 30.209-62.366 49.609-120.48 58.114-174.342 8.504-53.862 13.687-95.897 15.592-126.15H633.857c5.669 75.61 10.852 132.307 15.591 170.09z" fill="#FFFFFF" p-id="2928"></path></svg>