<svg t="1586404917241" class="icon" viewBox="0 0 1024 1024" version="1.1" xmlns="http://www.w3.org/2000/svg" p-id="5291" width="200" height="200"><path d="M512 512m-512 0a512 512 0 1 0 1024 0 512 512 0 1 0-1024 0Z" fill="#2ABAA5" p-id="5292"></path><path d="M547.84 544.256H353.28c-64.512 0-116.736 54.784-116.736 121.856 0 67.072 52.736 121.856 116.736 121.856h244.224c-12.288 0-86.528-54.784-86.528-121.856 0-91.648 36.864-121.856 36.864-121.856m-77.824-12.288c34.304 0 67.072-13.824 91.136-38.912 24.064-25.088 37.888-59.392 37.376-94.72 0-74.24-18.944-145.92-128.512-145.92-107.52 0-128.512 71.68-128.512 145.92 0 35.328 13.312 69.632 37.376 94.72 24.064 25.088 56.832 38.912 91.136 38.912" fill="#2F4451" p-id="5293"></path><path d="M726.72256 626.72896h-41.984v-39.936c0-5.12-1.536-10.24-5.12-13.824-3.584-3.584-7.68-5.632-12.8-5.632s-9.216 2.048-12.288 5.632c-3.072 3.584-4.608 8.704-4.608 13.824v39.936h-36.864c-5.12 0-9.728 2.048-13.824 5.632-3.584 3.584-5.632 8.192-5.632 13.824 0 5.12 2.048 9.216 5.632 12.288 3.584 2.56 8.192 4.096 13.824 4.096h36.864v40.96c0 5.12 1.536 10.24 4.608 13.824 3.072 3.584 7.168 5.632 12.288 5.632s9.728-2.048 12.8-5.632c3.584-4.096 5.12-8.704 5.12-13.824v-40.96h41.984v1.024c5.12 0 9.728-1.536 13.824-4.608 3.584-3.072 5.632-7.168 5.632-12.8s-2.048-10.24-5.632-13.824c-3.584-4.096-8.192-5.632-13.824-5.632m-56.832 136.704c-15.872 0-30.72-3.072-45.056-9.216-14.336-6.144-26.624-14.848-36.864-25.6-10.752-10.752-18.944-23.552-25.088-37.888-6.144-14.336-9.216-29.696-9.216-45.568 0-16.384 3.072-31.232 9.216-45.568 6.144-14.336 14.336-27.136 25.088-37.376 10.752-10.752 23.04-18.944 36.864-25.088 14.336-6.144 29.184-9.216 45.056-9.216 15.872 0 30.72 3.072 45.056 9.216 14.336 6.144 26.624 14.336 36.864 25.088 10.24 10.752 18.432 23.04 24.576 37.376 6.144 14.336 9.216 29.696 9.216 45.568 0 16.384-3.072 31.232-9.216 45.568-6.144 14.336-14.336 27.136-24.576 37.888-10.24 10.752-22.528 19.456-36.864 25.6-14.336 6.144-29.184 9.216-45.056 9.216" fill="#2F4451" p-id="5294"></path></svg>