<svg t="1586315296336" class="icon" viewBox="0 0 1024 1024" version="1.1" xmlns="http://www.w3.org/2000/svg" p-id="8124" width="200" height="200"><path d="M512 1024C229.624242 1024 0 794.375758 0 512S229.624242 0 512 0s512 229.624242 512 512-229.624242 512-512 512z m0-992.969697C246.690909 31.030303 31.030303 246.690909 31.030303 512s215.660606 480.969697 480.969697 480.969697 480.969697-215.660606 480.969697-480.969697S777.309091 31.030303 512 31.030303z" fill="#bfbfbf" p-id="8125"></path><path d="M569.406061 763.345455c-7.757576 0-13.963636-4.654545-15.515152-12.412122L449.939394 341.333333l-80.678788 307.2c-1.551515 6.206061-7.757576 10.860606-15.515151 10.860606-6.206061 0-12.412121-4.654545-15.515152-10.860606l-32.581818-113.260606H139.636364c-9.309091 0-15.515152-6.206061-15.515152-15.515151s6.206061-15.515152 15.515152-15.515152h178.424242c6.206061 0 12.412121 4.654545 15.515152 10.860606l20.169697 69.818182 80.678787-310.30303c1.551515-6.206061 7.757576-10.860606 15.515152-10.860606s13.963636 4.654545 15.515151 12.412121l107.054546 412.70303 85.333333-304.096969c1.551515-6.206061 7.757576-10.860606 13.963637-10.860606s12.412121 3.10303 15.515151 9.30909l48.09697 114.812122h153.6c9.309091 0 15.515152 6.206061 15.515151 15.515151s-6.206061 15.515152-15.515151 15.515152H723.006061c-6.206061 0-12.412121-3.10303-13.963637-9.309091l-34.133333-83.781818-88.436364 316.50909c-3.10303 6.206061-9.309091 10.860606-17.066666 10.860607z" fill="#bfbfbf" p-id="8126"></path></svg>