<svg t="1585988927321" class="icon" viewBox="0 0 1024 1024" version="1.1" xmlns="http://www.w3.org/2000/svg" p-id="28719" width="200" height="200"><path d="M124.393 828.44a34.91 34.91 0 1 1 54.062-44.15A429.545 429.545 0 0 0 512 942.546c237.777 0 430.545-192.768 430.545-430.545S749.777 81.455 512 81.455 81.455 274.223 81.455 512c0 39.005 5.166 77.265 15.29 114.13a34.91 34.91 0 0 1-67.352 18.455A500.852 500.852 0 0 1 11.636 512C11.636 235.66 235.66 11.636 512 11.636S1012.364 235.66 1012.364 512 788.34 1012.364 512 1012.364a499.34 499.34 0 0 1-387.607-183.925z m253.254-104.868a34.91 34.91 0 1 1-69.819 0V448.535a34.91 34.91 0 1 1 69.819 0V723.55z m338.525 0a34.91 34.91 0 0 1-69.819 0V554.31a34.91 34.91 0 1 1 69.819 0v169.262z m-169.263 0a34.91 34.91 0 0 1-69.818 0V300.428a34.91 34.91 0 0 1 69.818 0v423.144z" p-id="28720"></path></svg>