<svg t="1585987875360" class="icon" viewBox="0 0 1024 1024" version="1.1" xmlns="http://www.w3.org/2000/svg" p-id="16544" width="200" height="200"><path d="M692.225 584.856h-55.554v-55.554c0-10.955-8.87-19.83-19.828-19.83-10.955 0-19.828 8.875-19.828 19.83v55.554h-55.552c-10.958 0-19.828 8.872-19.828 19.827s8.87 19.828 19.828 19.828h55.552v55.556c0 10.955 8.873 19.827 19.828 19.827 10.958 0 19.828-8.872 19.828-19.827v-55.556h55.554c10.955 0 19.828-8.873 19.828-19.828s-8.873-19.828-19.828-19.827z" p-id="16545"></path><path d="M512 14C236.962 14 14 236.962 14 512s222.962 498 498 498c275.037 0 498-222.962 498-498S787.037 14 512 14zM308.054 323.048c0-54.838 87.768-99.438 196.55-99.438 108.847 0 196.91 44.48 196.91 99.438v33.76c0.119 26.795-21.198 51.147-55.436 68.952a172.247 172.247 0 0 0-26.498-2.623c-36.737 0-72.582 11.435-102.592 32.571h-12.086c-108.666 0-196.907-44.48-196.849-99.496v-33.164z m0 76.809c0 50.969 76.274 83.718 174.283 88.122a181.278 181.278 0 0 0-33.999 62.52c-80.918-12.322-140.284-49.537-140.284-94.729v-55.913z m0 99.376c0 43.646 56.03 74.013 133.256 84.491-1.07 6.966-1.847 13.994-2.143 21.078 0.177 15.063 2.262 30.01 6.132 44.597l0.119 0.118c-79.43-12.92-137.364-50.014-137.364-94.373v-55.911z m196.907 254.784c-108.665 0-196.907-44.479-196.907-99.438v-55.908c0 46.858 64.366 78.299 150.522 86.812v-0.238c13.102 27.332 32.811 50.912 57.224 68.772h-10.839z m168.508-11.373c-55.912 22.982-120.216 9.943-162.731-33.045-42.514-42.991-54.899-107.476-31.321-163.146 23.641-55.674 78.479-91.638 138.977-90.984 81.929 0.478 147.964 67.225 147.604 149.214-0.001 60.496-36.559 114.979-92.529 137.961z" p-id="16546"></path></svg>