<svg t="1585987905950" class="icon" viewBox="0 0 1024 1024" version="1.1" xmlns="http://www.w3.org/2000/svg" p-id="17342" width="200" height="200"><path d="M402.432 292.864h253.952v90.112H402.432zM402.432 444.928h253.952v95.232H402.432z" p-id="17343"></path><path d="M897.536 0H126.464C56.832 0 0 56.832 0 126.464v771.072C0 967.168 56.832 1024 126.464 1024h771.072c69.632 0 126.464-56.832 126.464-126.464V126.464C1024 56.832 967.168 0 897.536 0z m-173.056 732.672c0 42.496-21.504 63.488-65.536 63.488h-82.432l-18.432-65.536c28.16 2.048 54.784 3.072 78.336 3.072 12.8 0 19.456-9.216 19.456-25.6v-105.472H398.336c-8.704 80.896-33.28 148.992-73.216 203.776l-51.2-47.104c39.424-55.808 59.904-127.488 60.928-215.04V228.864h389.632v503.808z" p-id="17344"></path></svg>