<svg t="1585982194521" class="icon" viewBox="0 0 1024 1024" version="1.1" xmlns="http://www.w3.org/2000/svg" p-id="6330" width="200" height="200"><path d="M1007.51342 254.35c-22-46.14-47.36-90.67-69-137-26.22-56.21-68.64-81.29-130.57-80.23-97.8 1.68-195.66 0.45-293.49 0.45-101.49 0-203 0.34-304.47-0.14-50.77-0.24-91 17.47-115.19 63.95-27 51.83-54.85 103.27-79.5 156.19-37.22 79.93-4 176.56 72.51 217.24 69.24 36.87 158.54 16.68 211.94-47.9 27.82-33.65 45.72-34.32 72.87-2.71 78.71 91.63 194.87 93 275.89 3.29 32.52-36 46.92-35.68 78.23 2.37 39.2 47.63 91 66.5 150.71 62.15 111.67-8.12 179.84-133.14 130.07-237.66z" p-id="6331"></path><path d="M884.69342 565.48c-59.34 3.9-114.89-7.24-163.12-43.39-24-18-43.65-17.44-69.08-0.53-92.28 61.35-187 61.59-279.5 0.77-26.35-17.32-46.42-18.24-71.4 0.46-44.78 33.51-96 47.43-152.06 43.44-45.77-3.26-58.33 8.76-58.4 56q-0.2 137.14 0 274.28c0.15 63.42 26.77 90.14 90 90.26q164.56 0.31 329.13 0c113.37 0 226.74 0.36 340.11-0.18 53.46-0.25 82.17-27.89 82.65-80.75 0.89-98.73 0.6-197.48 0.08-296.22-0.18-33.04-15.43-46.31-48.41-44.14zM728.87342 841.32c-72.23 0.23-144.45 0.07-216.68 0.07s-144.45 0.16-216.68-0.07c-31.46-0.1-47.57-13-47.36-36.82 0.21-24 15.64-36.92 47.35-37q216.68-0.45 433.35 0c31.89 0.07 47.59 13.11 47.36 36.81-0.23 24.21-15.99 36.91-47.34 37.01z" p-id="6332"></path></svg>