<svg t="1585982325890" class="icon" viewBox="0 0 1024 1024" version="1.1" xmlns="http://www.w3.org/2000/svg" p-id="10846" width="200" height="200"><path d="M703.936 723.334l-206.74 74.528 77.592-203.677 283.31-283.31c1.531-1.531 3.573-3.062 5.104-4.594v-17.356L589.592 0H150.587c-43.9 0-79.633 35.733-79.633 79.633v864.734c0 43.9 35.733 79.633 79.633 79.633H783.57c43.9 0 79.633-35.733 79.633-79.633v-380.3L703.936 723.335zM189.894 444.618h200.614c18.888 0 34.712 15.825 34.712 34.712 0 19.398-15.824 34.712-34.712 34.712H189.894c-18.887 0-34.712-15.825-34.712-34.712s15.825-34.712 34.712-34.712z m0 120.981h200.614c18.888 0 34.712 15.825 34.712 34.712 0 19.398-15.824 34.712-34.712 34.712H189.894c-18.887 0-34.712-15.825-34.712-34.712s15.825-34.712 34.712-34.712z m0 112.814h200.614c18.888 0 34.712 15.824 34.712 34.712 0 19.397-15.824 34.711-34.712 34.711H189.894c-18.887 0-34.712-15.824-34.712-34.711 0-18.888 15.825-34.712 34.712-34.712z m520.678 224.095H189.384c-18.887 0-34.712-15.824-34.712-34.711s15.825-34.712 34.712-34.712h521.188c18.888 0 34.712 15.824 34.712 34.712 0 19.397-15.314 34.711-34.712 34.711z" p-id="10847"></path><path d="M557.432 746.816l129.659-47.984 7.146-7.658-80.654-80.654-7.657 7.657z m83.206-163.35l80.654 80.654 201.635-201.635-80.654-80.654z m336.399-229.2l-27.055-27.056c-14.804-14.803-38.796-14.803-54.11 0l-27.565 27.566 80.654 80.654 27.565-27.566c15.314-14.293 15.314-38.795 0.51-53.599zM589.591 210.313c0 43.9 35.733 79.633 79.633 79.633l193.468-0.51L590.102 1.02l-0.51 209.292z" p-id="10848"></path></svg>