<svg t="1587099864131" class="icon" viewBox="0 0 1024 1024" version="1.1" xmlns="http://www.w3.org/2000/svg" p-id="2217" width="200" height="200"><path d="M573 958.93a36.34 36.34 0 0 1-25.43-10.38L313.06 719.38H159.15a85.58 85.58 0 0 1-85.48-85.48V417.5a85.57 85.57 0 0 1 85.48-85.5h153.78L547.26 98.17a36.4 36.4 0 0 1 62.12 25.76v798.58A36.43 36.43 0 0 1 573 958.93zM705.4 752.25a32.5 32.5 0 0 1-23-55.48 241.93 241.93 0 0 0-2-344.08 32.5 32.5 0 1 1 45.44-46.48 306.93 306.93 0 0 1 2.48 436.52 32.37 32.37 0 0 1-22.92 9.52z" fill="#ffffff" p-id="2218"></path><path d="M804.26 857.79a32.5 32.5 0 0 1-22.72-55.74c75-73.34 116.29-171.48 116.29-276.35 0-105-41.41-203.28-116.6-276.65a32.5 32.5 0 0 1 45.39-46.52 451.13 451.13 0 0 1 0.36 646 32.4 32.4 0 0 1-22.72 9.26z" fill="#ffffff" p-id="2219"></path></svg>