<svg t="1585982223955" class="icon" viewBox="0 0 1024 1024" version="1.1" xmlns="http://www.w3.org/2000/svg" p-id="7873" width="200" height="200"><path d="M303.5 839.5m-75 0a75 75 0 1 0 150 0 75 75 0 1 0-150 0Z" p-id="7874"></path><path d="M730.5 839.5m-75 0a75 75 0 1 0 150 0 75 75 0 1 0-150 0Z" p-id="7875"></path><path d="M918.5 109.5h-553c-22.1 0-40 17.9-40 40v159.8L87.1 433.1c-13.3 6.9-21.6 20.6-21.6 35.5v369.9c0 13.8 11.2 25 25 25h90.3c-1.5-7.8-2.3-15.8-2.3-24 0-68.9 56.1-125 125-125s125 56.1 125 125c0 8.2-0.8 16.2-2.3 24h181.6c-1.5-7.8-2.3-15.8-2.3-24 0-68.9 56.1-125 125-125s125 56.1 125 125c0 8.2-0.8 16.2-2.3 24h80.3c13.8 0 25-11.2 25-25v-689c0-22.1-17.9-40-40-40z m-50 415c0 13.8-11.2 25-25 25h-350c-13.8 0-25-11.2-25-25s11.2-25 25-25h350c13.7 0 25 11.3 25 25z m0-110c0 13.8-11.2 25-25 25h-210c-13.8 0-25-11.2-25-25s11.2-25 25-25h210c13.7 0 25 11.3 25 25z m0-110c0 13.8-11.2 25-25 25h-130c-13.8 0-25-11.2-25-25s11.2-25 25-25h130c13.7 0 25 11.3 25 25z" p-id="7876"></path></svg>