<svg t="1585982302118" class="icon" viewBox="0 0 1024 1024" version="1.1" xmlns="http://www.w3.org/2000/svg" p-id="10081" width="200" height="200"><path d="M983.04 788.48L592.896 113.664C544.768 30.72 466.944 30.72 419.84 113.664L30.72 788.48c-48.128 82.944-8.192 149.504 86.016 149.504h779.264c95.232 1.024 134.144-66.56 87.04-149.504zM453.632 305.152c14.336-15.36 31.744-22.528 53.248-22.528s39.936 7.168 53.248 22.528c14.336 15.36 20.48 33.792 20.48 56.32 0 19.456-28.672 161.792-38.912 265.216h-69.632c-8.192-103.424-39.936-245.76-39.936-265.216 0-22.528 7.168-40.96 21.504-56.32z m105.472 492.544c-14.336 14.336-31.744 21.504-52.224 21.504-20.48 0-37.888-7.168-52.224-21.504-14.336-13.312-22.528-32.768-22.528-52.224 0-20.48 7.168-37.888 22.528-52.224 14.336-14.336 31.744-21.504 52.224-21.504 20.48 0 37.888 7.168 52.224 21.504 14.336 14.336 22.528 31.744 22.528 52.224 0 20.48-7.168 37.888-22.528 52.224z m0 0" p-id="10082"></path></svg>