<?xml version="1.0" standalone="no"?><!DOCTYPE svg PUBLIC "-//W3C//DTD SVG 1.1//EN" "http://www.w3.org/Graphics/SVG/1.1/DTD/svg11.dtd"><svg t="1650007842934" class="icon" viewBox="0 0 1024 1024" version="1.1" xmlns="http://www.w3.org/2000/svg" p-id="3316" xmlns:xlink="http://www.w3.org/1999/xlink" width="200" height="200"><defs><style type="text/css">@font-face { font-family: feedback-iconfont; src: url("//at.alicdn.com/t/font_1031158_u69w8yhxdu.woff2?t=1630033759944") format("woff2"), url("//at.alicdn.com/t/font_1031158_u69w8yhxdu.woff?t=1630033759944") format("woff"), url("//at.alicdn.com/t/font_1031158_u69w8yhxdu.ttf?t=1630033759944") format("truetype"); }
</style></defs><path d="M512 512m-448 0a448 448 0 1 0 896 0 448 448 0 1 0-896 0Z" fill="#07C160" p-id="3317"></path><path d="M466.7 679.8c-8.5 0-16.6-3.4-22.6-9.4l-181-181.1c-12.5-12.5-12.5-32.8 0-45.3s32.8-12.5 45.3 0l158.4 158.5 249-249c12.5-12.5 32.8-12.5 45.3 0s12.5 32.8 0 45.3L489.3 670.4c-6 6-14.1 9.4-22.6 9.4z" fill="#FFFFFF" p-id="3318"></path></svg>