<svg t="1585989313986" class="icon" viewBox="0 0 1024 1024" version="1.1" xmlns="http://www.w3.org/2000/svg" p-id="36599" width="200" height="200"><path d="M522.56 293.568 522.56 195.2 832 195.2l0 98.368L522.56 293.568 522.56 293.568zM522.56 443.584 522.56 345.216 832 345.216l0 98.368L522.56 443.584 522.56 443.584zM522.56 678.72 522.56 580.416 832 580.416l0 98.304L522.56 678.72 522.56 678.72zM522.56 828.736l0-98.304L832 730.432l0 98.304L522.56 828.736 522.56 828.736zM438.784 444.416 192 444.416 192 197.632l246.784 0L438.784 444.416zM438.784 828.032 192 828.032 192 581.248l246.784 0L438.784 828.032zM914.176 837.888c0 42.112-34.176 76.288-76.288 76.288L186.24 914.176c-42.112 0-76.352-34.176-76.352-76.288l0-312.96L32 524.928l0 312.96c0 84.928 69.184 154.112 154.24 154.112l651.648 0c84.928 0 154.112-69.184 154.112-154.112l0-312.96-77.824 0L914.176 837.888zM837.888 32 186.24 32C101.184 32 32 101.184 32 186.24l0 312.832 77.824 0L109.824 186.24c0-42.112 34.304-76.416 76.352-76.416l651.648 0c42.112 0 76.288 34.304 76.288 76.416l0 312.832L992 499.072 992 186.24C992 101.184 922.816 32 837.888 32z" p-id="36600"></path></svg>