<svg t="1585989295267" class="icon" viewBox="0 0 1024 1024" version="1.1" xmlns="http://www.w3.org/2000/svg" p-id="35838" width="200" height="200"><path d="M1006.736298 766.619351a336.989885 336.989885 0 0 0-5.497757-52.195058l-0.041585-0.233609-0.020793-0.227494a42.290534 42.290534 0 0 0-38.983317-38.189537l-0.248286-0.017123h-2.453504a48.542933 48.542933 0 0 1-48.29587-48.015784l0.008561-0.248286a55.420327 55.420327 0 0 1 4.256329-18.199472 48.063484 48.063484 0 0 0-17.863125-58.761789l-0.229939-0.151662-65.60983-36.331674-0.332679-0.144324a48.005999 48.005999 0 0 0-19.077645-3.924873l-0.292317 0.001223a51.049029 51.049029 0 0 0-36.215481 14.943626l-0.085616 0.085615-0.149216 0.160224a77.205878 77.205878 0 0 1-37.818943 22.716317l-1.225529 0.315555-1.226752-0.318001a77.496972 77.496972 0 0 1-38.096582-23.13828l-0.195694-0.205478a51.484447 51.484447 0 0 0-36.504129-15.306881h-0.408509a47.012856 47.012856 0 0 0-18.55172 3.797672l-1.534969 0.617656-66.743628 36.697376-1.912901 1.207183-0.205478 0.144324a47.849445 47.849445 0 0 0-16.213185 57.471437 55.826391 55.826391 0 0 1 4.338274 18.469773l0.004893 0.262963a48.503794 48.503794 0 0 1-48.286086 47.916714h-2.890144l-0.280086 0.020793a41.834324 41.834324 0 0 0-38.572362 38.27026l-0.011008 0.112524-0.041585 0.234832a337.106078 337.106078 0 0 0-5.462288 52.207288l-0.004892 0.192024 0.006116 0.193248a337.432641 337.432641 0 0 0 5.505095 52.300243l0.033023 0.232385 0.009785 0.119862a42.301541 42.301541 0 0 0 38.961302 38.191984l0.248286 0.0159h2.460843a48.540487 48.540487 0 0 1 48.347239 47.957076l-0.009785 0.272747a56.311955 56.311955 0 0 1-4.296689 18.248395 48.229824 48.229824 0 0 0 17.790962 58.728767l0.237278 0.156554 64.406316 35.882803 0.384048 0.161447a50.235679 50.235679 0 0 0 19.434786 3.896742 50.764051 50.764051 0 0 0 36.522475-15.618767l0.206701-0.227494a78.347014 78.347014 0 0 1 38.620062-24.166893l1.287906-0.348578 1.284237 0.353471a78.814232 78.814232 0 0 1 38.84511 24.662241l0.129646 0.154108 0.136986 0.144324a51.230046 51.230046 0 0 0 36.910192 15.814461h0.121085a49.666946 49.666946 0 0 0 20.796077-4.680738l0.221378-0.103962 64.931019-35.919495 1.804047-1.159483 0.22627-0.161447a47.859229 47.859229 0 0 0 16.199732-57.416398 56.86968 56.86968 0 0 1-4.322375-18.512581l-0.006115-0.269079a48.533148 48.533148 0 0 1 48.309324-47.883691h2.800859l0.273971-0.019569a42.310103 42.310103 0 0 0 38.582146-38.23846l0.031801-0.234832 0.022015-0.119862a342.249141 342.249141 0 0 0 5.522219-52.23542l0.006115-0.201809z m-272.561553 90.764973a90.899513 90.899513 0 0 1-0.012231-181.799025h0.004892a90.899513 90.899513 0 0 1 0.007339 181.799025z" p-id="35839"></path><path d="M648.703273 77.446446A266.157492 266.157492 0 0 0 460.360755 0.000844a266.142815 266.142815 0 0 0-188.354749 77.445602 266.186846 266.186846 0 0 0-79.390304 187.6209 265.243849 265.243849 0 0 0 27.066822 116.486404 266.317715 266.317715 0 0 0 67.453016 85.98272l6.188799 5.185871-7.448575 3.082169A435.51165 435.51165 0 0 0 17.250092 880.302449v2.80086A131.193975 131.193975 0 0 0 148.095488 1013.936475h370.471777a24.821242 24.821242 0 0 0 12.328674-3.265631c0.44031-0.244617 0.88062-0.513695 1.308699-0.795004a304.498691 304.498691 0 0 1-85.151024-86.826647 302.32038 302.32038 0 0 1 190.800915-459.243125c0.648234-0.562618 1.284237-1.149698 1.932471-1.712316a265.83949 265.83949 0 0 0 61.227524-80.527771 265.476234 265.476234 0 0 0 27.054592-116.57202 266.122022 266.122022 0 0 0-79.365843-187.547515z" p-id="35840"></path></svg>