<svg t="1585989691332" class="icon" viewBox="0 0 1024 1024" version="1.1" xmlns="http://www.w3.org/2000/svg" p-id="41520" width="200" height="200"><path d="M968.96 230.542a28.786 28.786 0 0 0-2.446 1.422l-92.217 61.611C625.493 461.483 500.878 545.308 500.452 545.024L123.733 288.199l-64.995-44.003v-15.93a56.889 56.889 0 0 1 56.889-56.888H912.07a56.889 56.889 0 0 1 56.889 56.889v2.275z m0 68.21v498.404a56.889 56.889 0 0 1-56.889 56.888H115.627a56.889 56.889 0 0 1-56.89-56.888V312.917l32.996 22.358 376.69 256.74a58.596 58.596 0 0 0 65.792 0.227l371.968-251.534c2.674-1.82 23.694-15.872 62.777-41.956z" p-id="41521"></path></svg>