<svg t="1585989707074" class="icon" viewBox="0 0 1185 1024" version="1.1" xmlns="http://www.w3.org/2000/svg" p-id="42282" width="200" height="200"><path d="M949.679158 585.135158a51.738947 51.738947 0 0 1-51.361684-52.062316c0-28.672 23.066947-51.846737 51.361684-51.846737 28.348632 0 51.415579 23.174737 51.415579 51.846737a51.738947 51.738947 0 0 1-51.415579 52.062316m-264.29979 0a51.738947 51.738947 0 0 1-51.361684-52.062316c0-28.672 23.066947-51.846737 51.361684-51.846737 28.348632 0 51.415579 23.174737 51.415579 51.846737a51.738947 51.738947 0 0 1-51.415579 52.062316M1185.684211 659.024842c0-168.151579-149.665684-305.744842-339.429053-317.655579a489.202526 489.202526 0 0 0-26.624-0.808421c-202.266947 0-366.106947 142.605474-366.106947 318.517895 0 26.516211 3.772632 52.170105 10.886736 76.69221 39.343158 138.886737 183.457684 241.771789 355.166316 241.77179 58.475789 0 113.664-11.856842 162.546526-33.091369l82.189474 56.158316s21.881263 15.306105 19.779369-14.174316l-23.228632-87.95621C1137.394526 840.218947 1185.684211 754.580211 1185.684211 659.024842M259.072 300.894316a51.631158 51.631158 0 0 1-51.415579-51.900632 51.738947 51.738947 0 0 1 51.415579-52.008421c28.456421 0 51.361684 23.174737 51.361684 52.008421a51.523368 51.523368 0 0 1-51.361684 51.900632m323.584-103.909053a51.738947 51.738947 0 0 1 51.361684 52.008421 51.631158 51.631158 0 0 1-51.361684 51.900632 51.577263 51.577263 0 0 1-51.415579-51.900632c0-28.779789 22.905263-52.008421 51.415579-52.008421m236.975158 117.059369c7.868632 0 15.629474 0.323368 23.390316 0.700631-30.181053-178.068211-206.416842-314.745263-419.301053-314.745263C189.709474 0 0 165.187368 0 368.747789c0 113.448421 58.960842 214.878316 151.498105 282.570106l-31.258947 118.029473s-10.725053 39.235368 29.803789 21.61179l116.736-79.710316a475.351579 475.351579 0 0 0 156.941474 26.408421c4.796632 0 9.377684-0.377263 14.012632-0.377263a301.702737 301.702737 0 0 1-10.401685-78.201263c0-190.248421 176.020211-345.034105 392.29979-345.034105" p-id="42283"></path></svg>