<?xml version="1.0" standalone="no"?><!DOCTYPE svg PUBLIC "-//W3C//DTD SVG 1.1//EN" "http://www.w3.org/Graphics/SVG/1.1/DTD/svg11.dtd"><svg t="1560171216974" class="icon" style="" viewBox="0 0 1348 1024" version="1.1" xmlns="http://www.w3.org/2000/svg" p-id="3141" xmlns:xlink="http://www.w3.org/1999/xlink" width="263.28125" height="200"><defs><style type="text/css"></style></defs><path d="M801.717073 448.561951c-65.685854 36.714146-47.703415 101.900488 16.983415 137.365854l406.353171 222.532683c64.936585 35.465366 122.88 24.97561 123.379512-47.203903V262.243902c0-72.179512-62.938537-84.917073-128.624391-48.202926z" fill="#DDDDDD" p-id="3142"></path><path d="M199.804878 0h629.635122a199.804878 199.804878 0 0 1 199.804878 199.804878v624.390244a199.804878 199.804878 0 0 1-199.804878 199.804878H199.804878a199.804878 199.804878 0 0 1-199.804878-199.804878V199.804878a199.804878 199.804878 0 0 1 199.804878-199.804878z" fill="#C6C6C6" p-id="3143"></path><path d="M244.51122 145.108293a97.404878 97.404878 0 1 1-98.154147 97.404878 97.654634 97.654634 0 0 1 98.154147-97.404878z" fill="#F1F1F1" p-id="3144"></path></svg>